<?xml version="1.0" encoding="UTF-8"?>
<svg viewBox="0 0 125.8 57.992" xmlns="http://www.w3.org/2000/svg">
 <path d="m22.944 10.458s20.571-1.524 32.507 3.047l8.635 2.54s14.476 13.714 27.174 15.238 20.825 0 23.619 3.048c2.793 3.047 0 2.793 0 2.793s-10.159-0.254-17.777 3.302c-7.619 3.555-13.714 7.365-13.714 7.365l-38.094-1.524-28.699-10.158s-2.54-4.063-3.047-6.603-11.937-16.508-11.937-16.508 5.333-1.778 7.619-1.27 13.714-1.27 13.714-1.27z" fill="#fff"/>
 <path d="m23.389 12.532s2.413-0.762 2.667 1.651-0.508 3.302-1.905 3.175-3.175-3.175-0.762-4.826z"/>
 <path d="m71.472 22.31s-9.82-7.28-19.301-9.143c0 0 3.386-4.233 4.233-6.434 0.846-2.201 6.095-8.127 7.619-6.434s0.67699 2.54 0.847 6.942c0.169 4.403 0.507 10.498 6.602 15.069z"/>
 <path d="m23.261 13.802s1.016 0.254 1.143 1.27c0 0 1.27-2.412-1.143-1.27z" fill="#fff"/>
 <path d="m90.181 30.818s0 0.762 1.651 1.016 7.619 0.889 7.619 0.889-5.207-0.762-4.444-3.683-0.12701-1.524-2.286 0.127-2.54 1.651-2.54 1.651z"/>
 <path d="m81.927 33.992s4.952 2.032 12.825 1.778 15.873-1.905 18.666-0.889-0.762-1.778-3.428-1.651c0 0-2.54-0.508-4.19-1.016 0 0 1.65-0.381 3.047-2.92s11.682-17.65 14.349-16.634 2.286-0.508 0.508 1.904c-1.778 2.413-0.254 2.794-0.254 2.794s0.635 0.254-0.76199 1.65c-1.396 1.397-3.174 9.778-3.682 11.556s-0.889 7.238 1.905 11.174c2.793 3.937 2.159 4.698 2.032 5.206s0.254 1.524 0.889 1.778 3.302 3.81 1.143 4.063c-2.158 0.254-6.603-3.174-8.38-4.952s-8-9.397-10.54-8.889-9.905 3.174-16.254 5.587c0 0-1.65 1.905-6.222 0 0 0-3.809-1.524-4.19-1.524 0 0 0.635-2.286 1.523-2.286 0.889 0 11.174-2.031 5.841-4.19 0 0-6.222-1.651-5.841-2.413 0.38-0.761 1.015-0.126 1.015-0.126z"/>
 <path d="m91.578 48.087s-13.841-4.698-21.079-6.222-6.222-2.032-9.016-3.047c-2.793-1.016-1.905-2.667-1.905-2.667s1.016-1.777 0.508-6.095c-0.508-4.317-0.635 0-0.635 0-0.127 2.92-0.762 1.27-1.143-1.143s-0.508-0.762-0.508-0.762c-1.016 6.476-1.905 3.682-1.905 3.682 0.508-2.793-0.254-4.19-0.254-4.19s-1.523 11.556-11.174 12.317c-9.65 0.762-14.476-6.603-16.253-8.762-0.362-0.44-0.877-0.743-1.48-0.948 1.76-0.528 3.629-0.921 5.353-1 5.587-0.254 0.508-1.016 0.508-1.016-14.079 0.926-15.996 3.203-16.003 4.368-0.488 0.9-0.568 1.77-0.568 1.77-0.889-0.889-0.635-2.413-0.635-2.413 0.635-1.143 0.381-1.65 0-3.174s1.651 0 2.286 0.635 0.635-1.143 0.127-2.54c-0.508-1.396 2.032 0.762 2.54 1.397s0.508-0.762 0.508-2.032 0.762-0.508 0.762-0.508 0.889 1.65 1.65 1.65c0.762 0 0.381-1.904 0.381-1.904s1.016 1.27 1.523 1.27c0.508 0 0.762 0.254 0.635-1.016s1.016-0.381 1.524 0.254 0.889 0.635 0.762-0.508 1.523 0.381 2.032 1.016c0.508 0.635 1.016-0.508 0.635-1.143s0.762-0.381 0.762-0.381 0.254 0.889 1.397 1.651 1.143-1.143 1.143-1.143c0.508-0.381 0.635 1.016 0.635 1.016 0.508 0 2.159 0.889 2.159 0.889s0.254-0.381-0.254-1.396c-0.508-1.016-1.016-2.794-7.873-2.413s-12.698-4.953-13.333-6.476c-0.635-1.524-0.635-1.27-2.159-2.159s-0.762 0.889-0.254 2.286c0.508 1.396-0.889 0.508-0.889 0.508s-3.428-2.793-5.714-4.063 2.413-1.651 5.714-1.397c3.302 0.254 7.619 0.254 10.413-0.889s10.54-0.254 10.54-0.254c-1.524-1.016-8.762-2.032-12.063-1.143-3.302 0.889-10.793 0.635-10.793 0.635-11.177-0.507-10.161 3.429-10.161 3.429 0.254 9.524 11.936 17.27 13.333 18.032s1.524 2.031 1.524 2.031c0.635 3.683 9.396 7.746 12.952 9.397 3.555 1.651 1.016 2.032 1.016 2.032s-5.206 4.19-8 9.27c-2.793 5.079 2.032 2.54 2.032 2.54s8.381-3.174 13.714-5.587 6.349-1.524 6.349-1.524c16.38 5.079 25.904 2.159 27.682 1.651s0-1.143-1.27-2.286-0.254-0.762-0.254-0.762 7.873 1.651 16 2.794 14.857 2.54 19.682 3.555c4.825 1.016 4.317-0.254 4.317-0.254 1.397-0.255-17.523-6.858-17.523-6.858z"/>
</svg>
