<?xml version="1.0" encoding="UTF-8"?>
<!-- Generator: Moho 12.5 build 22438 -->
<!DOCTYPE svg PUBLIC "-//W3C//DTD SVG 1.1//EN" "http://www.w3.org/Graphics/SVG/1.1/DTD/svg11.dtd">
<svg version="1.1" id="Frame_1" xmlns="http://www.w3.org/2000/svg" xmlns:xlink="http://www.w3.org/1999/xlink" width="1920px" height="1080px">
<g id="Layer_2">
<g id="Layer_4">
<clipPath id="8ce2f8bb-b65b-48e1-b0e5-7a50a81a4487">
<path fill="#a9d3e3" fill-rule="evenodd" stroke="none" d="M 577.312 352.954 C 576.302 350.854 575.124 347.977 574.187 345.845 C 574.186 345.846 566.484 352.648 563.002 355.342 C 556.348 360.489 547.227 367.081 539.967 371.331 C 533.912 374.876 525.663 379.545 518.958 381.615 C 514.788 382.903 508.929 384.373 504.590 383.903 C 501.554 383.574 497.621 382.005 495.048 380.362 C 491.699 378.224 488.057 374.166 485.753 370.930 C 482.743 366.703 480.003 360.232 478.218 355.359 C 473.679 342.969 470.318 325.563 468.080 312.558 C 465.062 295.023 462.980 271.332 461.893 253.573 C 461.095 240.532 460.707 223.094 461.007 210.033 C 461.194 201.907 462.018 191.092 462.699 182.992 C 463.290 175.964 464.418 166.626 465.155 159.612 C 465.158 159.611 488.745 159.377 498.852 159.140 C 518.468 158.680 544.628 158.016 564.218 156.904 C 575.913 156.239 591.471 154.838 603.147 153.896 C 614.339 152.993 629.234 150.093 640.443 150.761 C 649.706 151.313 662.092 153.558 670.774 156.834 C 675.670 158.681 681.972 161.986 686.025 165.296 C 689.212 167.900 693.170 171.976 695.030 175.648 C 696.837 179.215 698.297 184.661 697.979 188.647 C 697.619 193.175 694.367 198.646 692.221 202.650 C 686.822 212.723 676.903 224.480 670.295 233.805 C 661.387 246.377 649.411 263.068 640.461 275.609 C 640.466 275.612 680.030 296.134 696.734 305.400 C 707.480 311.362 721.676 319.554 732.192 325.913 C 749.236 336.220 771.888 350.130 788.260 361.475 C 808.183 375.281 834.372 394.358 852.660 410.267 C 864.734 420.769 879.924 435.836 890.651 447.710 C 902.525 460.852 917.216 479.410 927.572 493.779 C 937.511 507.570 949.898 526.609 958.331 541.370 C 964.904 552.876 973.505 568.425 978.215 580.810 C 980.600 587.081 983.830 595.652 984.236 602.350 C 984.579 607.991 983.099 615.563 981.531 620.992 C 980.377 624.990 978.312 630.252 976.004 633.714 C 974.881 635.398 972.809 637.193 971.439 638.684 C 971.442 638.684 991.841 640.622 1000.389 642.543 C 1005.614 643.716 1013.178 644.592 1017.436 647.840 C 1020.209 649.955 1023.198 654.049 1023.984 657.447 C 1025.083 662.193 1023.004 668.911 1021.237 673.452 C 1019.970 676.706 1016.973 680.397 1015.061 683.320 C 1013.898 685.099 1012.270 687.421 1011.074 689.178 C 1011.075 689.178 1019.580 685.217 1023.515 684.871 C 1027.997 684.476 1034.184 685.536 1038.313 687.326 C 1046.220 690.751 1053.860 700.075 1060.523 705.540 C 1060.526 705.536 1082.097 678.350 1094.260 670.151 C 1101.969 664.954 1113.859 660.547 1122.856 658.201 C 1130.302 656.260 1140.628 655.095 1148.323 655.142 C 1156.355 655.190 1166.996 657.056 1174.861 658.684 C 1178.885 659.517 1184.170 661.012 1188.073 662.295 C 1193.626 664.122 1200.696 667.480 1206.223 669.383 C 1212.471 671.534 1221.057 673.602 1227.330 675.678 C 1235.559 678.401 1246.416 682.387 1254.462 685.609 C 1258.705 687.308 1264.362 689.602 1268.450 691.646 C 1272.447 693.645 1277.431 696.950 1281.378 699.045 C 1285.164 701.055 1290.491 703.198 1294.201 705.344 C 1296.142 706.467 1298.644 708.120 1300.437 709.466 C 1302.040 710.670 1303.955 712.552 1305.536 713.785 C 1309.667 717.007 1315.529 720.828 1319.812 723.846 C 1319.811 723.846 1315.746 722.405 1313.959 721.939 C 1311.213 721.223 1307.433 720.806 1304.672 720.153 C 1302.385 719.612 1299.404 718.630 1297.129 718.041 C 1291.848 716.673 1284.762 715.024 1279.427 713.890 C 1274.140 712.767 1267.013 711.651 1261.729 710.514 C 1259.057 709.939 1255.529 709.015 1252.862 708.416 C 1247.125 707.128 1239.449 705.527 1233.683 704.377 C 1228.083 703.259 1220.590 701.902 1214.977 700.851 C 1208.320 699.604 1199.472 697.781 1192.782 696.720 C 1188.917 696.107 1183.710 695.652 1179.854 694.985 C 1173.772 693.931 1165.831 691.653 1159.743 690.634 C 1154.720 689.793 1147.970 688.944 1142.889 688.594 C 1139.294 688.347 1134.483 688.241 1130.881 688.348 C 1127.875 688.436 1123.886 688.894 1120.888 689.128 C 1120.889 689.129 1125.688 694.787 1128.328 696.485 C 1131.201 698.333 1135.724 699.476 1138.985 700.493 C 1146.666 702.887 1157.273 704.737 1165.069 706.724 C 1172.897 708.720 1183.115 712.306 1191.060 713.771 C 1199.156 715.263 1210.258 715.074 1218.367 716.499 C 1224.135 717.513 1231.744 719.389 1237.311 721.208 C 1240.832 722.357 1245.281 724.559 1248.769 725.804 C 1252.418 727.107 1257.363 728.618 1261.092 729.668 C 1265.154 730.813 1270.694 731.878 1274.740 733.078 C 1277.610 733.929 1281.332 735.387 1284.183 736.300 C 1286.931 737.180 1290.612 738.311 1293.398 739.063 C 1295.702 739.684 1298.866 740.173 1301.128 740.930 C 1302.696 741.454 1304.681 742.431 1306.198 743.087 C 1308.206 743.957 1310.935 745.012 1312.871 746.031 C 1315.316 747.316 1318.344 749.432 1320.690 750.890 C 1320.689 750.890 1316.238 750.647 1314.334 750.491 C 1311.198 750.234 1307.038 749.644 1303.900 749.414 C 1298.091 748.988 1290.313 749.030 1284.502 748.639 C 1276.162 748.077 1265.074 746.895 1256.768 745.950 C 1253.650 745.596 1249.506 745.019 1246.393 744.625 C 1241.920 744.058 1235.959 743.261 1231.479 742.754 C 1224.800 741.998 1215.870 741.228 1209.186 740.525 C 1205.587 740.146 1200.807 739.424 1197.194 739.207 C 1193.871 739.008 1189.428 739.068 1186.100 739.081 C 1181.622 739.098 1175.654 739.316 1171.176 739.381 C 1165.594 739.461 1158.149 739.395 1152.568 739.538 C 1146.105 739.704 1137.499 740.272 1131.037 740.472 C 1124.760 740.666 1116.387 740.728 1110.109 740.858 C 1105.667 740.950 1099.690 740.500 1095.301 741.196 C 1093.259 741.520 1090.657 742.498 1088.667 743.057 C 1088.669 743.057 1109.330 742.698 1118.152 743.356 C 1127.215 744.031 1139.137 746.417 1148.154 747.551 C 1157.162 748.684 1169.238 749.658 1178.229 750.913 C 1186.478 752.065 1197.446 753.851 1205.611 755.493 C 1212.314 756.841 1221.199 758.913 1227.803 760.687 C 1232.108 761.844 1237.846 763.438 1242.033 764.970 C 1244.702 765.946 1248.119 767.602 1250.742 768.694 C 1254.193 770.130 1258.903 771.785 1262.291 773.362 C 1264.990 774.617 1268.506 776.473 1271.071 777.985 C 1273.220 779.252 1276.124 780.926 1278.031 782.535 C 1280.021 784.213 1282.161 786.991 1283.931 788.901 C 1281.492 788.596 1278.238 788.197 1275.800 787.886 C 1271.306 787.312 1265.312 786.558 1260.826 785.926 C 1256.909 785.374 1251.702 784.541 1247.790 783.960 C 1243.687 783.351 1238.221 782.512 1234.110 781.959 C 1228.223 781.167 1220.325 780.476 1214.455 779.563 C 1209.588 778.806 1203.162 777.432 1198.320 776.527 C 1194.718 775.853 1189.927 774.881 1186.310 774.294 C 1177.502 772.864 1165.714 771.181 1156.831 770.322 C 1146.056 769.279 1131.629 768.021 1120.805 768.250 C 1115.560 768.361 1108.612 769.345 1103.386 769.814 C 1103.391 769.816 1143.345 781.432 1159.696 788.452 C 1164.539 790.532 1170.577 794.193 1175.325 796.482 C 1185.485 801.380 1199.350 807.223 1209.656 811.805 C 1217.806 815.429 1228.689 820.222 1236.839 823.847 C 1245.094 827.518 1256.270 832.057 1264.338 836.123 C 1267.733 837.835 1272.079 840.456 1275.417 842.275 C 1279.938 844.737 1285.964 848.027 1290.556 850.351 C 1296.535 853.378 1304.898 856.650 1310.710 859.985 C 1313.195 861.411 1316.267 863.700 1318.672 865.257 C 1322.651 867.832 1328.489 870.542 1332.036 873.687 C 1334.169 875.579 1336.313 878.784 1338.146 880.969 C 1338.145 880.969 1329.906 880.302 1326.387 879.900 C 1323.295 879.547 1319.190 878.938 1316.111 878.492 C 1312.212 877.928 1307.000 877.243 1303.129 876.511 C 1298.366 875.611 1292.074 874.108 1287.372 872.928 C 1281.469 871.445 1273.639 869.293 1267.815 867.524 C 1261.962 865.747 1254.265 863.044 1248.464 861.107 C 1243.728 859.525 1237.418 857.398 1232.686 855.803 C 1223.065 852.558 1210.240 848.226 1200.628 844.952 C 1190.779 841.598 1177.709 836.936 1167.818 833.706 C 1156.876 830.133 1142.425 824.755 1131.171 822.340 C 1124.823 820.977 1116.094 820.720 1109.718 819.501 C 1107.187 819.018 1103.925 817.816 1101.370 817.486 C 1099.336 817.223 1096.586 817.367 1094.535 817.316 C 1094.541 817.320 1136.308 846.172 1154.201 858.553 C 1162.621 864.379 1174.042 871.879 1182.261 877.988 C 1189.921 883.681 1199.566 892.009 1207.154 897.798 C 1215.390 904.082 1226.670 912.061 1235.037 918.170 C 1240.931 922.472 1249.014 927.916 1254.687 932.505 C 1256.933 934.322 1259.755 936.949 1261.913 938.869 C 1264.773 941.414 1268.621 944.769 1271.399 947.402 C 1275.072 950.881 1279.822 955.675 1283.321 959.329 C 1284.508 960.570 1286.045 962.268 1287.206 963.534 C 1288.195 964.611 1289.453 966.105 1290.490 967.137 C 1292.423 969.060 1295.239 971.368 1297.275 973.182 C 1297.274 973.182 1291.121 971.043 1288.543 969.974 C 1285.834 968.850 1282.359 967.038 1279.674 965.858 C 1274.797 963.714 1268.136 961.230 1263.259 959.087 C 1254.177 955.097 1242.196 949.481 1233.338 945.016 C 1225.116 940.872 1214.495 934.692 1206.314 930.469 C 1198.245 926.304 1187.389 920.941 1179.185 917.052 C 1175.102 915.117 1169.597 912.668 1165.483 910.800 C 1160.710 908.634 1154.383 905.663 1149.562 903.609 C 1145.270 901.781 1139.470 899.532 1135.132 897.818 C 1128.805 895.319 1120.302 892.156 1113.993 889.612 C 1104.370 885.733 1091.634 880.331 1082.103 876.232 C 1072.156 871.954 1058.984 866.042 1049.076 861.675 C 1049.076 861.676 1054.163 869.382 1055.680 873.016 C 1058.311 879.318 1059.019 888.637 1061.283 895.080 C 1064.090 903.070 1068.765 913.437 1073.073 920.728 C 1077.656 928.483 1085.626 937.585 1090.952 944.850 C 1096.831 952.870 1104.178 963.935 1110.406 971.688 C 1114.244 976.467 1119.659 982.603 1123.903 987.024 C 1127.600 990.876 1132.832 995.714 1136.757 999.335 C 1141.171 1003.407 1147.470 1008.390 1151.726 1012.627 C 1153.900 1014.792 1156.547 1017.920 1158.603 1020.198 C 1160.289 1022.066 1162.637 1024.473 1164.203 1026.442 C 1166.117 1028.847 1168.316 1032.318 1170.078 1034.836 C 1170.077 1034.836 1163.146 1033.190 1160.280 1032.154 C 1157.170 1031.031 1153.177 1029.122 1150.248 1027.587 C 1146.951 1025.859 1142.839 1023.052 1139.603 1021.212 C 1134.195 1018.136 1126.677 1014.587 1121.327 1011.412 C 1116.500 1008.548 1110.103 1004.615 1105.656 1001.191 C 1101.051 997.644 1095.484 992.216 1091.285 988.198 C 1086.262 983.391 1079.776 976.763 1075.022 971.691 C 1069.583 965.888 1062.427 958.049 1057.393 951.893 C 1052.971 946.485 1047.428 938.989 1043.404 933.279 C 1038.298 926.033 1031.519 916.314 1027.167 908.591 C 1024.189 903.305 1021.094 895.801 1018.381 890.374 C 1017.277 888.166 1015.743 885.252 1014.612 883.057 C 1014.613 883.059 1018.366 894.940 1020.606 899.773 C 1022.871 904.657 1026.829 910.687 1029.587 915.310 C 1034.433 923.432 1040.760 934.362 1046.154 942.130 C 1050.149 947.883 1055.960 955.209 1060.420 960.609 C 1063.668 964.542 1068.258 969.563 1071.646 973.376 C 1074.788 976.911 1079.311 981.344 1082.179 985.105 C 1084.124 987.656 1086.540 991.218 1088.015 994.067 C 1088.808 995.598 1089.543 997.789 1090.198 999.383 C 1090.198 999.383 1087.057 997.698 1085.704 996.989 C 1082.822 995.478 1079.057 993.288 1076.057 992.027 C 1073.317 990.875 1069.418 989.992 1066.657 988.889 C 1063.354 987.569 1059.054 985.538 1055.930 983.838 C 1049.613 980.401 1041.471 975.274 1035.685 971.005 C 1029.183 966.210 1020.878 959.268 1015.225 953.497 C 1010.959 949.142 1005.512 943.007 1002.260 937.851 C 999.670 933.744 996.968 927.789 995.377 923.201 C 989.624 906.616 987.727 882.948 983.671 865.868 C 982.978 862.954 982.061 853.364 981.132 856.212 C 980.689 857.571 981.746 859.492 981.958 860.906 C 982.356 863.569 982.697 867.146 983.031 869.818 C 983.641 874.688 984.488 881.178 985.144 886.043 C 986.172 893.660 986.880 903.947 988.699 911.414 C 990.342 918.161 993.451 926.951 996.346 933.263 C 997.786 936.402 1000.100 940.406 1001.982 943.301 C 1004.608 947.340 1008.550 952.435 1011.648 956.125 C 1014.807 959.888 1019.070 964.930 1022.826 968.099 C 1026.923 971.555 1033.221 975.055 1037.773 977.883 C 1042.851 981.038 1050.041 984.573 1054.948 987.988 C 1056.762 989.251 1058.943 991.254 1060.718 992.573 C 1062.187 993.664 1064.261 994.958 1065.727 996.054 C 1067.872 997.657 1070.590 999.979 1072.674 1001.661 C 1072.673 1001.661 1067.342 1001.400 1065.145 1000.818 C 1062.708 1000.172 1059.833 998.257 1057.439 997.469 C 1054.064 996.359 1049.250 996.014 1045.879 994.892 C 1042.277 993.693 1037.816 991.227 1034.350 989.679 C 1029.227 987.390 1022.315 984.520 1017.235 982.137 C 1013.080 980.188 1007.442 977.737 1003.536 975.327 C 1000.739 973.600 997.196 970.979 994.740 968.795 C 992.069 966.422 988.997 962.751 986.579 960.120 C 984.011 957.326 980.377 953.765 978.129 950.708 C 975.364 946.950 971.941 941.652 970.231 937.312 C 968.069 931.824 967.315 923.861 966.130 918.083 C 964.976 912.458 963.359 904.970 962.428 899.303 C 960.674 888.612 957.917 874.312 957.869 863.478 C 957.821 852.469 960.522 837.918 962.197 827.037 C 962.678 823.907 964.679 819.764 964.089 816.653 C 963.114 811.514 958.208 805.705 954.312 802.215 C 950.305 798.626 943.373 796.019 938.440 793.873 C 933.162 791.577 925.310 790.430 920.325 787.553 C 918.287 786.377 915.576 784.544 914.235 782.610 C 913.308 781.272 912.653 779.110 912.405 777.501 C 912.268 776.613 912.441 775.405 912.457 774.506 C 912.456 774.506 905.830 777.273 902.822 777.293 C 900.334 777.309 896.784 776.686 894.804 775.180 C 892.868 773.708 891.348 770.531 890.706 768.185 C 889.433 763.541 890.674 756.925 891.236 752.143 C 892.150 744.366 893.535 733.793 896.659 726.613 C 897.867 723.836 900.523 720.696 902.178 718.161 C 898.932 720.514 894.804 723.957 891.356 726.004 C 888.956 727.428 885.749 729.691 882.983 730.055 C 880.323 730.406 876.712 729.330 874.196 728.400 C 863.537 724.461 851.435 714.727 842.304 707.963 C 827.487 696.985 809.294 680.336 795.773 667.796 C 780.465 653.598 760.737 633.916 746.509 618.635 C 735.991 607.339 722.555 591.730 712.771 579.793 C 705.800 571.288 696.556 559.876 690.300 550.832 C 682.437 539.466 673.372 523.383 666.303 511.507 C 658.101 497.729 647.429 479.202 639.485 465.274 C 631.845 451.878 621.811 433.930 614.342 420.438 C 608.229 409.397 600.291 394.559 594.160 383.528 C 590.927 377.711 586.451 370.048 583.264 364.205 C 581.436 360.853 578.969 356.394 577.312 352.954 M 902.178 718.161 C 902.178 718.161 902.178 718.161 902.178 718.161 Z"/>
</clipPath>
<path fill="#a9d3e3" fill-rule="evenodd" stroke="none" d="M 577.312 352.954 C 576.302 350.854 575.124 347.977 574.187 345.845 C 574.186 345.846 566.484 352.648 563.002 355.342 C 556.348 360.489 547.227 367.081 539.967 371.331 C 533.912 374.876 525.663 379.545 518.958 381.615 C 514.788 382.903 508.929 384.373 504.590 383.903 C 501.554 383.574 497.621 382.005 495.048 380.362 C 491.699 378.224 488.057 374.166 485.753 370.930 C 482.743 366.703 480.003 360.232 478.218 355.359 C 473.679 342.969 470.318 325.563 468.080 312.558 C 465.062 295.023 462.980 271.332 461.893 253.573 C 461.095 240.532 460.707 223.094 461.007 210.033 C 461.194 201.907 462.018 191.092 462.699 182.992 C 463.290 175.964 464.418 166.626 465.155 159.612 C 465.158 159.611 488.745 159.377 498.852 159.140 C 518.468 158.680 544.628 158.016 564.218 156.904 C 575.913 156.239 591.471 154.838 603.147 153.896 C 614.339 152.993 629.234 150.093 640.443 150.761 C 649.706 151.313 662.092 153.558 670.774 156.834 C 675.670 158.681 681.972 161.986 686.025 165.296 C 689.212 167.900 693.170 171.976 695.030 175.648 C 696.837 179.215 698.297 184.661 697.979 188.647 C 697.619 193.175 694.367 198.646 692.221 202.650 C 686.822 212.723 676.903 224.480 670.295 233.805 C 661.387 246.377 649.411 263.068 640.461 275.609 C 640.466 275.612 680.030 296.134 696.734 305.400 C 707.480 311.362 721.676 319.554 732.192 325.913 C 749.236 336.220 771.888 350.130 788.260 361.475 C 808.183 375.281 834.372 394.358 852.660 410.267 C 864.734 420.769 879.924 435.836 890.651 447.710 C 902.525 460.852 917.216 479.410 927.572 493.779 C 937.511 507.570 949.898 526.609 958.331 541.370 C 964.904 552.876 973.505 568.425 978.215 580.810 C 980.600 587.081 983.830 595.652 984.236 602.350 C 984.579 607.991 983.099 615.563 981.531 620.992 C 980.377 624.990 978.312 630.252 976.004 633.714 C 974.881 635.398 972.809 637.193 971.439 638.684 C 971.442 638.684 991.841 640.622 1000.389 642.543 C 1005.614 643.716 1013.178 644.592 1017.436 647.840 C 1020.209 649.955 1023.198 654.049 1023.984 657.447 C 1025.083 662.193 1023.004 668.911 1021.237 673.452 C 1019.970 676.706 1016.973 680.397 1015.061 683.320 C 1013.898 685.099 1012.270 687.421 1011.074 689.178 C 1011.075 689.178 1019.580 685.217 1023.515 684.871 C 1027.997 684.476 1034.184 685.536 1038.313 687.326 C 1046.220 690.751 1053.860 700.075 1060.523 705.540 C 1060.526 705.536 1082.097 678.350 1094.260 670.151 C 1101.969 664.954 1113.859 660.547 1122.856 658.201 C 1130.302 656.260 1140.628 655.095 1148.323 655.142 C 1156.355 655.190 1166.996 657.056 1174.861 658.684 C 1178.885 659.517 1184.170 661.012 1188.073 662.295 C 1193.626 664.122 1200.696 667.480 1206.223 669.383 C 1212.471 671.534 1221.057 673.602 1227.330 675.678 C 1235.559 678.401 1246.416 682.387 1254.462 685.609 C 1258.705 687.308 1264.362 689.602 1268.450 691.646 C 1272.447 693.645 1277.431 696.950 1281.378 699.045 C 1285.164 701.055 1290.491 703.198 1294.201 705.344 C 1296.142 706.467 1298.644 708.120 1300.437 709.466 C 1302.040 710.670 1303.955 712.552 1305.536 713.785 C 1309.667 717.007 1315.529 720.828 1319.812 723.846 C 1319.811 723.846 1315.746 722.405 1313.959 721.939 C 1311.213 721.223 1307.433 720.806 1304.672 720.153 C 1302.385 719.612 1299.404 718.630 1297.129 718.041 C 1291.848 716.673 1284.762 715.024 1279.427 713.890 C 1274.140 712.767 1267.013 711.651 1261.729 710.514 C 1259.057 709.939 1255.529 709.015 1252.862 708.416 C 1247.125 707.128 1239.449 705.527 1233.683 704.377 C 1228.083 703.259 1220.590 701.902 1214.977 700.851 C 1208.320 699.604 1199.472 697.781 1192.782 696.720 C 1188.917 696.107 1183.710 695.652 1179.854 694.985 C 1173.772 693.931 1165.831 691.653 1159.743 690.634 C 1154.720 689.793 1147.970 688.944 1142.889 688.594 C 1139.294 688.347 1134.483 688.241 1130.881 688.348 C 1127.875 688.436 1123.886 688.894 1120.888 689.128 C 1120.889 689.129 1125.688 694.787 1128.328 696.485 C 1131.201 698.333 1135.724 699.476 1138.985 700.493 C 1146.666 702.887 1157.273 704.737 1165.069 706.724 C 1172.897 708.720 1183.115 712.306 1191.060 713.771 C 1199.156 715.263 1210.258 715.074 1218.367 716.499 C 1224.135 717.513 1231.744 719.389 1237.311 721.208 C 1240.832 722.357 1245.281 724.559 1248.769 725.804 C 1252.418 727.107 1257.363 728.618 1261.092 729.668 C 1265.154 730.813 1270.694 731.878 1274.740 733.078 C 1277.610 733.929 1281.332 735.387 1284.183 736.300 C 1286.931 737.180 1290.612 738.311 1293.398 739.063 C 1295.702 739.684 1298.866 740.173 1301.128 740.930 C 1302.696 741.454 1304.681 742.431 1306.198 743.087 C 1308.206 743.957 1310.935 745.012 1312.871 746.031 C 1315.316 747.316 1318.344 749.432 1320.690 750.890 C 1320.689 750.890 1316.238 750.647 1314.334 750.491 C 1311.198 750.234 1307.038 749.644 1303.900 749.414 C 1298.091 748.988 1290.313 749.030 1284.502 748.639 C 1276.162 748.077 1265.074 746.895 1256.768 745.950 C 1253.650 745.596 1249.506 745.019 1246.393 744.625 C 1241.920 744.058 1235.959 743.261 1231.479 742.754 C 1224.800 741.998 1215.870 741.228 1209.186 740.525 C 1205.587 740.146 1200.807 739.424 1197.194 739.207 C 1193.871 739.008 1189.428 739.068 1186.100 739.081 C 1181.622 739.098 1175.654 739.316 1171.176 739.381 C 1165.594 739.461 1158.149 739.395 1152.568 739.538 C 1146.105 739.704 1137.499 740.272 1131.037 740.472 C 1124.760 740.666 1116.387 740.728 1110.109 740.858 C 1105.667 740.950 1099.690 740.500 1095.301 741.196 C 1093.259 741.520 1090.657 742.498 1088.667 743.057 C 1088.669 743.057 1109.330 742.698 1118.152 743.356 C 1127.215 744.031 1139.137 746.417 1148.154 747.551 C 1157.162 748.684 1169.238 749.658 1178.229 750.913 C 1186.478 752.065 1197.446 753.851 1205.611 755.493 C 1212.314 756.841 1221.199 758.913 1227.803 760.687 C 1232.108 761.844 1237.846 763.438 1242.033 764.970 C 1244.702 765.946 1248.119 767.602 1250.742 768.694 C 1254.193 770.130 1258.903 771.785 1262.291 773.362 C 1264.990 774.617 1268.506 776.473 1271.071 777.985 C 1273.220 779.252 1276.124 780.926 1278.031 782.535 C 1280.021 784.213 1282.161 786.991 1283.931 788.901 C 1281.492 788.596 1278.238 788.197 1275.800 787.886 C 1271.306 787.312 1265.312 786.558 1260.826 785.926 C 1256.909 785.374 1251.702 784.541 1247.790 783.960 C 1243.687 783.351 1238.221 782.512 1234.110 781.959 C 1228.223 781.167 1220.325 780.476 1214.455 779.563 C 1209.588 778.806 1203.162 777.432 1198.320 776.527 C 1194.718 775.853 1189.927 774.881 1186.310 774.294 C 1177.502 772.864 1165.714 771.181 1156.831 770.322 C 1146.056 769.279 1131.629 768.021 1120.805 768.250 C 1115.560 768.361 1108.612 769.345 1103.386 769.814 C 1103.391 769.816 1143.345 781.432 1159.696 788.452 C 1164.539 790.532 1170.577 794.193 1175.325 796.482 C 1185.485 801.380 1199.350 807.223 1209.656 811.805 C 1217.806 815.429 1228.689 820.222 1236.839 823.847 C 1245.094 827.518 1256.270 832.057 1264.338 836.123 C 1267.733 837.835 1272.079 840.456 1275.417 842.275 C 1279.938 844.737 1285.964 848.027 1290.556 850.351 C 1296.535 853.378 1304.898 856.650 1310.710 859.985 C 1313.195 861.411 1316.267 863.700 1318.672 865.257 C 1322.651 867.832 1328.489 870.542 1332.036 873.687 C 1334.169 875.579 1336.313 878.784 1338.146 880.969 C 1338.145 880.969 1329.906 880.302 1326.387 879.900 C 1323.295 879.547 1319.190 878.938 1316.111 878.492 C 1312.212 877.928 1307.000 877.243 1303.129 876.511 C 1298.366 875.611 1292.074 874.108 1287.372 872.928 C 1281.469 871.445 1273.639 869.293 1267.815 867.524 C 1261.962 865.747 1254.265 863.044 1248.464 861.107 C 1243.728 859.525 1237.418 857.398 1232.686 855.803 C 1223.065 852.558 1210.240 848.226 1200.628 844.952 C 1190.779 841.598 1177.709 836.936 1167.818 833.706 C 1156.876 830.133 1142.425 824.755 1131.171 822.340 C 1124.823 820.977 1116.094 820.720 1109.718 819.501 C 1107.187 819.018 1103.925 817.816 1101.370 817.486 C 1099.336 817.223 1096.586 817.367 1094.535 817.316 C 1094.541 817.320 1136.308 846.172 1154.201 858.553 C 1162.621 864.379 1174.042 871.879 1182.261 877.988 C 1189.921 883.681 1199.566 892.009 1207.154 897.798 C 1215.390 904.082 1226.670 912.061 1235.037 918.170 C 1240.931 922.472 1249.014 927.916 1254.687 932.505 C 1256.933 934.322 1259.755 936.949 1261.913 938.869 C 1264.773 941.414 1268.621 944.769 1271.399 947.402 C 1275.072 950.881 1279.822 955.675 1283.321 959.329 C 1284.508 960.570 1286.045 962.268 1287.206 963.534 C 1288.195 964.611 1289.453 966.105 1290.490 967.137 C 1292.423 969.060 1295.239 971.368 1297.275 973.182 C 1297.274 973.182 1291.121 971.043 1288.543 969.974 C 1285.834 968.850 1282.359 967.038 1279.674 965.858 C 1274.797 963.714 1268.136 961.230 1263.259 959.087 C 1254.177 955.097 1242.196 949.481 1233.338 945.016 C 1225.116 940.872 1214.495 934.692 1206.314 930.469 C 1198.245 926.304 1187.389 920.941 1179.185 917.052 C 1175.102 915.117 1169.597 912.668 1165.483 910.800 C 1160.710 908.634 1154.383 905.663 1149.562 903.609 C 1145.270 901.781 1139.470 899.532 1135.132 897.818 C 1128.805 895.319 1120.302 892.156 1113.993 889.612 C 1104.370 885.733 1091.634 880.331 1082.103 876.232 C 1072.156 871.954 1058.984 866.042 1049.076 861.675 C 1049.076 861.676 1054.163 869.382 1055.680 873.016 C 1058.311 879.318 1059.019 888.637 1061.283 895.080 C 1064.090 903.070 1068.765 913.437 1073.073 920.728 C 1077.656 928.483 1085.626 937.585 1090.952 944.850 C 1096.831 952.870 1104.178 963.935 1110.406 971.688 C 1114.244 976.467 1119.659 982.603 1123.903 987.024 C 1127.600 990.876 1132.832 995.714 1136.757 999.335 C 1141.171 1003.407 1147.470 1008.390 1151.726 1012.627 C 1153.900 1014.792 1156.547 1017.920 1158.603 1020.198 C 1160.289 1022.066 1162.637 1024.473 1164.203 1026.442 C 1166.117 1028.847 1168.316 1032.318 1170.078 1034.836 C 1170.077 1034.836 1163.146 1033.190 1160.280 1032.154 C 1157.170 1031.031 1153.177 1029.122 1150.248 1027.587 C 1146.951 1025.859 1142.839 1023.052 1139.603 1021.212 C 1134.195 1018.136 1126.677 1014.587 1121.327 1011.412 C 1116.500 1008.548 1110.103 1004.615 1105.656 1001.191 C 1101.051 997.644 1095.484 992.216 1091.285 988.198 C 1086.262 983.391 1079.776 976.763 1075.022 971.691 C 1069.583 965.888 1062.427 958.049 1057.393 951.893 C 1052.971 946.485 1047.428 938.989 1043.404 933.279 C 1038.298 926.033 1031.519 916.314 1027.167 908.591 C 1024.189 903.305 1021.094 895.801 1018.381 890.374 C 1017.277 888.166 1015.743 885.252 1014.612 883.057 C 1014.613 883.059 1018.366 894.940 1020.606 899.773 C 1022.871 904.657 1026.829 910.687 1029.587 915.310 C 1034.433 923.432 1040.760 934.362 1046.154 942.130 C 1050.149 947.883 1055.960 955.209 1060.420 960.609 C 1063.668 964.542 1068.258 969.563 1071.646 973.376 C 1074.788 976.911 1079.311 981.344 1082.179 985.105 C 1084.124 987.656 1086.540 991.218 1088.015 994.067 C 1088.808 995.598 1089.543 997.789 1090.198 999.383 C 1090.198 999.383 1087.057 997.698 1085.704 996.989 C 1082.822 995.478 1079.057 993.288 1076.057 992.027 C 1073.317 990.875 1069.418 989.992 1066.657 988.889 C 1063.354 987.569 1059.054 985.538 1055.930 983.838 C 1049.613 980.401 1041.471 975.274 1035.685 971.005 C 1029.183 966.210 1020.878 959.268 1015.225 953.497 C 1010.959 949.142 1005.512 943.007 1002.260 937.851 C 999.670 933.744 996.968 927.789 995.377 923.201 C 989.624 906.616 987.727 882.948 983.671 865.868 C 982.978 862.954 982.061 853.364 981.132 856.212 C 980.689 857.571 981.746 859.492 981.958 860.906 C 982.356 863.569 982.697 867.146 983.031 869.818 C 983.641 874.688 984.488 881.178 985.144 886.043 C 986.172 893.660 986.880 903.947 988.699 911.414 C 990.342 918.161 993.451 926.951 996.346 933.263 C 997.786 936.402 1000.100 940.406 1001.982 943.301 C 1004.608 947.340 1008.550 952.435 1011.648 956.125 C 1014.807 959.888 1019.070 964.930 1022.826 968.099 C 1026.923 971.555 1033.221 975.055 1037.773 977.883 C 1042.851 981.038 1050.041 984.573 1054.948 987.988 C 1056.762 989.251 1058.943 991.254 1060.718 992.573 C 1062.187 993.664 1064.261 994.958 1065.727 996.054 C 1067.872 997.657 1070.590 999.979 1072.674 1001.661 C 1072.673 1001.661 1067.342 1001.400 1065.145 1000.818 C 1062.708 1000.172 1059.833 998.257 1057.439 997.469 C 1054.064 996.359 1049.250 996.014 1045.879 994.892 C 1042.277 993.693 1037.816 991.227 1034.350 989.679 C 1029.227 987.390 1022.315 984.520 1017.235 982.137 C 1013.080 980.188 1007.442 977.737 1003.536 975.327 C 1000.739 973.600 997.196 970.979 994.740 968.795 C 992.069 966.422 988.997 962.751 986.579 960.120 C 984.011 957.326 980.377 953.765 978.129 950.708 C 975.364 946.950 971.941 941.652 970.231 937.312 C 968.069 931.824 967.315 923.861 966.130 918.083 C 964.976 912.458 963.359 904.970 962.428 899.303 C 960.674 888.612 957.917 874.312 957.869 863.478 C 957.821 852.469 960.522 837.918 962.197 827.037 C 962.678 823.907 964.679 819.764 964.089 816.653 C 963.114 811.514 958.208 805.705 954.312 802.215 C 950.305 798.626 943.373 796.019 938.440 793.873 C 933.162 791.577 925.310 790.430 920.325 787.553 C 918.287 786.377 915.576 784.544 914.235 782.610 C 913.308 781.272 912.653 779.110 912.405 777.501 C 912.268 776.613 912.441 775.405 912.457 774.506 C 912.456 774.506 905.830 777.273 902.822 777.293 C 900.334 777.309 896.784 776.686 894.804 775.180 C 892.868 773.708 891.348 770.531 890.706 768.185 C 889.433 763.541 890.674 756.925 891.236 752.143 C 892.150 744.366 893.535 733.793 896.659 726.613 C 897.867 723.836 900.523 720.696 902.178 718.161 C 898.932 720.514 894.804 723.957 891.356 726.004 C 888.956 727.428 885.749 729.691 882.983 730.055 C 880.323 730.406 876.712 729.330 874.196 728.400 C 863.537 724.461 851.435 714.727 842.304 707.963 C 827.487 696.985 809.294 680.336 795.773 667.796 C 780.465 653.598 760.737 633.916 746.509 618.635 C 735.991 607.339 722.555 591.730 712.771 579.793 C 705.800 571.288 696.556 559.876 690.300 550.832 C 682.437 539.466 673.372 523.383 666.303 511.507 C 658.101 497.729 647.429 479.202 639.485 465.274 C 631.845 451.878 621.811 433.930 614.342 420.438 C 608.229 409.397 600.291 394.559 594.160 383.528 C 590.927 377.711 586.451 370.048 583.264 364.205 C 581.436 360.853 578.969 356.394 577.312 352.954 M 902.178 718.161 C 902.178 718.161 902.178 718.161 902.178 718.161 Z"/>
<path fill="none" stroke="#000000" stroke-width="6" stroke-opacity="0.000000" stroke-linecap="round" stroke-linejoin="round" d="M 574.187 345.845 C 574.187 345.845 574.187 345.845 574.187 345.845 C 575.124 347.977 576.302 350.854 577.312 352.954 C 578.969 356.394 581.436 360.853 583.264 364.205 C 586.451 370.048 590.927 377.711 594.160 383.528 C 600.291 394.559 608.229 409.397 614.342 420.438 C 621.811 433.930 631.845 451.878 639.485 465.274 C 647.429 479.202 658.101 497.729 666.303 511.507 C 673.372 523.383 682.437 539.466 690.300 550.832 C 696.556 559.876 705.800 571.288 712.771 579.793 C 722.555 591.730 735.991 607.339 746.509 618.635 C 760.737 633.916 780.465 653.598 795.773 667.796 C 809.294 680.336 827.487 696.985 842.304 707.963 C 851.435 714.727 863.537 724.461 874.196 728.400 C 876.712 729.330 880.323 730.406 882.983 730.055 C 885.749 729.691 888.956 727.428 891.356 726.004 C 894.804 723.957 898.932 720.514 902.178 718.161 C 902.178 718.161 902.178 718.161 902.178 718.161 C 900.523 720.696 897.867 723.836 896.659 726.613 C 893.535 733.793 892.150 744.366 891.236 752.143 C 890.674 756.925 889.433 763.541 890.706 768.185 C 891.348 770.531 892.868 773.708 894.804 775.180 C 896.784 776.686 900.334 777.309 902.822 777.293 C 905.830 777.273 912.456 774.506 912.457 774.506 C 912.457 774.506 912.457 774.506 912.457 774.506 C 912.441 775.405 912.268 776.613 912.405 777.501 C 912.653 779.110 913.308 781.272 914.235 782.610 C 915.576 784.544 918.287 786.377 920.325 787.553 C 925.310 790.430 933.162 791.577 938.440 793.873 C 943.373 796.019 950.305 798.626 954.312 802.215 C 958.208 805.705 963.114 811.514 964.089 816.653 C 964.679 819.764 962.678 823.907 962.197 827.037 C 960.522 837.918 957.821 852.469 957.869 863.478 C 957.917 874.312 960.674 888.612 962.428 899.303 C 963.359 904.970 964.976 912.458 966.130 918.083 C 967.315 923.861 968.069 931.824 970.231 937.312 C 971.941 941.652 975.364 946.950 978.129 950.708 C 980.377 953.765 984.011 957.326 986.579 960.120 C 988.997 962.751 992.069 966.422 994.740 968.795 C 997.196 970.979 1000.739 973.600 1003.536 975.327 C 1007.442 977.737 1013.080 980.188 1017.235 982.137 C 1022.315 984.520 1029.227 987.390 1034.350 989.679 C 1037.816 991.227 1042.277 993.693 1045.879 994.892 C 1049.250 996.014 1054.064 996.359 1057.439 997.469 C 1059.833 998.257 1062.708 1000.172 1065.145 1000.818 C 1067.342 1001.400 1072.673 1001.661 1072.674 1001.661 C 1072.674 1001.661 1072.674 1001.661 1072.674 1001.661 C 1070.590 999.979 1067.872 997.657 1065.727 996.054 C 1064.261 994.958 1062.187 993.664 1060.718 992.573 C 1058.943 991.254 1056.762 989.251 1054.948 987.988 C 1050.041 984.573 1042.851 981.038 1037.773 977.883 C 1033.221 975.055 1026.923 971.555 1022.826 968.099 C 1019.070 964.930 1014.807 959.888 1011.648 956.125 C 1008.550 952.435 1004.608 947.340 1001.982 943.301 C 1000.100 940.406 997.786 936.402 996.346 933.263 C 993.451 926.951 990.342 918.161 988.699 911.414 C 986.880 903.947 986.172 893.660 985.144 886.043 C 984.488 881.178 983.641 874.688 983.031 869.818 C 982.697 867.146 982.356 863.569 981.958 860.906 C 981.746 859.492 980.689 857.571 981.132 856.212 C 982.061 853.364 982.978 862.954 983.671 865.868 C 987.727 882.948 989.624 906.616 995.377 923.201 C 996.968 927.789 999.670 933.744 1002.260 937.851 C 1005.512 943.007 1010.959 949.142 1015.225 953.497 C 1020.878 959.268 1029.183 966.210 1035.685 971.005 C 1041.471 975.274 1049.613 980.401 1055.930 983.838 C 1059.054 985.538 1063.354 987.569 1066.657 988.889 C 1069.418 989.992 1073.317 990.875 1076.057 992.027 C 1079.057 993.288 1082.822 995.478 1085.704 996.989 C 1087.057 997.698 1090.198 999.383 1090.198 999.383 C 1090.198 999.383 1090.198 999.383 1090.198 999.383 C 1089.543 997.789 1088.808 995.598 1088.015 994.067 C 1086.540 991.218 1084.124 987.656 1082.179 985.105 C 1079.311 981.344 1074.788 976.911 1071.646 973.376 C 1068.258 969.563 1063.668 964.542 1060.420 960.609 C 1055.960 955.209 1050.149 947.883 1046.154 942.130 C 1040.760 934.362 1034.433 923.432 1029.587 915.310 C 1026.829 910.687 1022.871 904.657 1020.606 899.773 C 1018.366 894.940 1014.613 883.059 1014.612 883.057 C 1014.612 883.057 1014.612 883.057 1014.612 883.057 C 1015.743 885.252 1017.277 888.166 1018.381 890.374 C 1021.094 895.801 1024.189 903.305 1027.167 908.591 C 1031.519 916.314 1038.298 926.033 1043.404 933.279 C 1047.428 938.989 1052.971 946.485 1057.393 951.893 C 1062.427 958.049 1069.583 965.888 1075.022 971.691 C 1079.776 976.763 1086.262 983.391 1091.285 988.198 C 1095.484 992.216 1101.051 997.644 1105.656 1001.191 C 1110.103 1004.615 1116.500 1008.548 1121.327 1011.412 C 1126.677 1014.587 1134.195 1018.136 1139.603 1021.212 C 1142.839 1023.052 1146.951 1025.859 1150.248 1027.587 C 1153.177 1029.122 1157.170 1031.031 1160.280 1032.154 C 1163.146 1033.190 1170.077 1034.836 1170.078 1034.836 C 1170.078 1034.836 1170.078 1034.836 1170.078 1034.836 C 1168.316 1032.318 1166.117 1028.847 1164.203 1026.442 C 1162.637 1024.473 1160.289 1022.066 1158.603 1020.198 C 1156.547 1017.920 1153.900 1014.792 1151.726 1012.627 C 1147.470 1008.390 1141.171 1003.407 1136.757 999.335 C 1132.832 995.714 1127.600 990.876 1123.903 987.024 C 1119.659 982.603 1114.244 976.467 1110.406 971.688 C 1104.178 963.935 1096.831 952.870 1090.952 944.850 C 1085.626 937.585 1077.656 928.483 1073.073 920.728 C 1068.765 913.437 1064.090 903.070 1061.283 895.080 C 1059.019 888.637 1058.311 879.318 1055.680 873.016 C 1054.163 869.382 1049.076 861.676 1049.076 861.675 C 1049.076 861.675 1049.076 861.675 1049.076 861.675 C 1058.984 866.042 1072.156 871.954 1082.103 876.232 C 1091.634 880.331 1104.370 885.733 1113.993 889.612 C 1120.302 892.156 1128.805 895.319 1135.132 897.818 C 1139.470 899.532 1145.270 901.781 1149.562 903.609 C 1154.383 905.663 1160.710 908.634 1165.483 910.800 C 1169.597 912.668 1175.102 915.117 1179.185 917.052 C 1187.389 920.941 1198.245 926.304 1206.314 930.469 C 1214.495 934.692 1225.116 940.872 1233.338 945.016 C 1242.196 949.481 1254.177 955.097 1263.259 959.087 C 1268.136 961.230 1274.797 963.714 1279.674 965.858 C 1282.359 967.038 1285.834 968.850 1288.543 969.974 C 1291.121 971.043 1297.274 973.182 1297.275 973.182 C 1297.275 973.182 1297.275 973.182 1297.275 973.182 C 1295.239 971.368 1292.423 969.060 1290.490 967.137 C 1289.453 966.105 1288.195 964.611 1287.206 963.534 C 1286.045 962.268 1284.508 960.570 1283.321 959.329 C 1279.822 955.675 1275.072 950.881 1271.399 947.402 C 1268.621 944.769 1264.773 941.414 1261.913 938.869 C 1259.755 936.949 1256.933 934.322 1254.687 932.505 C 1249.014 927.916 1240.931 922.472 1235.037 918.170 C 1226.670 912.061 1215.390 904.082 1207.154 897.798 C 1199.566 892.009 1189.921 883.681 1182.261 877.988 C 1174.042 871.879 1162.621 864.379 1154.201 858.553 C 1136.308 846.172 1094.541 817.320 1094.535 817.316 C 1094.535 817.316 1094.535 817.316 1094.535 817.316 C 1096.586 817.367 1099.336 817.223 1101.370 817.486 C 1103.925 817.816 1107.187 819.018 1109.718 819.501 C 1116.094 820.720 1124.823 820.977 1131.171 822.340 C 1142.425 824.755 1156.876 830.133 1167.818 833.706 C 1177.709 836.936 1190.779 841.598 1200.628 844.952 C 1210.240 848.226 1223.065 852.558 1232.686 855.803 C 1237.418 857.398 1243.728 859.525 1248.464 861.107 C 1254.265 863.044 1261.962 865.747 1267.815 867.524 C 1273.639 869.293 1281.469 871.445 1287.372 872.928 C 1292.074 874.108 1298.366 875.611 1303.129 876.511 C 1307.000 877.243 1312.212 877.928 1316.111 878.492 C 1319.190 878.938 1323.295 879.547 1326.387 879.900 C 1329.906 880.302 1338.145 880.969 1338.146 880.969 C 1338.146 880.969 1338.146 880.969 1338.146 880.969 C 1336.313 878.784 1334.169 875.579 1332.036 873.687 C 1328.489 870.542 1322.651 867.832 1318.672 865.257 C 1316.267 863.700 1313.195 861.411 1310.710 859.985 C 1304.898 856.650 1296.535 853.378 1290.556 850.351 C 1285.964 848.027 1279.938 844.737 1275.417 842.275 C 1272.079 840.456 1267.733 837.835 1264.338 836.123 C 1256.270 832.057 1245.094 827.518 1236.839 823.847 C 1228.689 820.222 1217.806 815.429 1209.656 811.805 C 1199.350 807.223 1185.485 801.380 1175.325 796.482 C 1170.577 794.193 1164.539 790.532 1159.696 788.452 C 1143.345 781.432 1103.391 769.816 1103.386 769.814 C 1103.386 769.814 1103.386 769.814 1103.386 769.814 C 1108.612 769.345 1115.560 768.361 1120.805 768.250 C 1131.629 768.021 1146.056 769.279 1156.831 770.322 C 1165.714 771.181 1177.502 772.864 1186.310 774.294 C 1189.927 774.881 1194.718 775.853 1198.320 776.527 C 1203.162 777.432 1209.588 778.806 1214.455 779.563 C 1220.325 780.476 1228.223 781.167 1234.110 781.959 C 1238.221 782.512 1243.687 783.351 1247.790 783.960 C 1251.702 784.541 1256.909 785.374 1260.826 785.926 C 1265.312 786.558 1271.306 787.312 1275.800 787.886 C 1278.238 788.197 1281.492 788.596 1283.931 788.901 C 1283.931 788.901 1283.931 788.901 1283.931 788.901 C 1283.931 788.901 1283.931 788.901 1283.931 788.901 C 1282.161 786.991 1280.021 784.213 1278.031 782.535 C 1276.124 780.926 1273.220 779.252 1271.071 777.985 C 1268.506 776.473 1264.990 774.617 1262.291 773.362 C 1258.903 771.785 1254.193 770.130 1250.742 768.694 C 1248.119 767.602 1244.702 765.946 1242.033 764.970 C 1237.846 763.438 1232.108 761.844 1227.803 760.687 C 1221.199 758.913 1212.314 756.841 1205.611 755.493 C 1197.446 753.851 1186.478 752.065 1178.229 750.913 C 1169.238 749.658 1157.162 748.684 1148.154 747.551 C 1139.137 746.417 1127.215 744.031 1118.152 743.356 C 1109.330 742.698 1088.669 743.057 1088.667 743.057 C 1088.667 743.057 1088.667 743.057 1088.667 743.057 C 1090.657 742.498 1093.259 741.520 1095.301 741.196 C 1099.690 740.500 1105.667 740.950 1110.109 740.858 C 1116.387 740.728 1124.760 740.666 1131.037 740.472 C 1137.499 740.272 1146.105 739.704 1152.568 739.538 C 1158.149 739.395 1165.594 739.461 1171.176 739.381 C 1175.654 739.316 1181.622 739.098 1186.100 739.081 C 1189.428 739.068 1193.871 739.008 1197.194 739.207 C 1200.807 739.424 1205.587 740.146 1209.186 740.525 C 1215.870 741.228 1224.800 741.998 1231.479 742.754 C 1235.959 743.261 1241.920 744.058 1246.393 744.625 C 1249.506 745.019 1253.650 745.596 1256.768 745.950 C 1265.074 746.895 1276.162 748.077 1284.502 748.639 C 1290.313 749.030 1298.091 748.988 1303.900 749.414 C 1307.038 749.644 1311.198 750.234 1314.334 750.491 C 1316.238 750.647 1320.689 750.890 1320.690 750.890 C 1320.690 750.890 1320.690 750.890 1320.690 750.890 C 1318.344 749.432 1315.316 747.316 1312.871 746.031 C 1310.935 745.012 1308.206 743.957 1306.198 743.087 C 1304.681 742.431 1302.696 741.454 1301.128 740.930 C 1298.866 740.173 1295.702 739.684 1293.398 739.063 C 1290.612 738.311 1286.931 737.180 1284.183 736.300 C 1281.332 735.387 1277.610 733.929 1274.740 733.078 C 1270.694 731.878 1265.154 730.813 1261.092 729.668 C 1257.363 728.618 1252.418 727.107 1248.769 725.804 C 1245.281 724.559 1240.832 722.357 1237.311 721.208 C 1231.744 719.389 1224.135 717.513 1218.367 716.499 C 1210.258 715.074 1199.156 715.263 1191.060 713.771 C 1183.115 712.306 1172.897 708.720 1165.069 706.724 C 1157.273 704.737 1146.666 702.887 1138.985 700.493 C 1135.724 699.476 1131.201 698.333 1128.328 696.485 C 1125.688 694.787 1120.889 689.129 1120.888 689.128 C 1120.888 689.128 1120.888 689.128 1120.888 689.128 C 1123.886 688.894 1127.875 688.436 1130.881 688.348 C 1134.483 688.241 1139.294 688.347 1142.889 688.594 C 1147.970 688.944 1154.720 689.793 1159.743 690.634 C 1165.831 691.653 1173.772 693.931 1179.854 694.985 C 1183.710 695.652 1188.917 696.107 1192.782 696.720 C 1199.472 697.781 1208.320 699.604 1214.977 700.851 C 1220.590 701.902 1228.083 703.259 1233.683 704.377 C 1239.449 705.527 1247.125 707.128 1252.862 708.416 C 1255.529 709.015 1259.057 709.939 1261.729 710.514 C 1267.013 711.651 1274.140 712.767 1279.427 713.890 C 1284.762 715.024 1291.848 716.673 1297.129 718.041 C 1299.404 718.630 1302.385 719.612 1304.672 720.153 C 1307.433 720.806 1311.213 721.223 1313.959 721.939 C 1315.746 722.405 1319.811 723.846 1319.812 723.846 C 1319.812 723.846 1319.812 723.846 1319.812 723.846 C 1315.529 720.828 1309.667 717.007 1305.536 713.785 C 1303.955 712.552 1302.040 710.670 1300.437 709.466 C 1298.644 708.120 1296.142 706.467 1294.201 705.344 C 1290.491 703.198 1285.164 701.055 1281.378 699.045 C 1277.431 696.950 1272.447 693.645 1268.450 691.646 C 1264.362 689.602 1258.705 687.308 1254.462 685.609 C 1246.416 682.387 1235.559 678.401 1227.330 675.678 C 1221.057 673.602 1212.471 671.534 1206.223 669.383 C 1200.696 667.480 1193.626 664.122 1188.073 662.295 C 1184.170 661.012 1178.885 659.517 1174.861 658.684 C 1166.996 657.056 1156.355 655.190 1148.323 655.142 C 1140.628 655.095 1130.302 656.260 1122.856 658.201 C 1113.859 660.547 1101.969 664.954 1094.260 670.151 C 1082.097 678.350 1060.526 705.536 1060.523 705.540 C 1060.523 705.540 1060.523 705.540 1060.523 705.540 C 1053.860 700.075 1046.220 690.751 1038.313 687.326 C 1034.184 685.536 1027.997 684.476 1023.515 684.871 C 1019.580 685.217 1011.075 689.178 1011.074 689.178 C 1011.074 689.178 1011.074 689.178 1011.074 689.178 C 1012.270 687.421 1013.898 685.099 1015.061 683.320 C 1016.973 680.397 1019.970 676.706 1021.237 673.452 C 1023.004 668.911 1025.083 662.193 1023.984 657.447 C 1023.198 654.049 1020.209 649.955 1017.436 647.840 C 1013.178 644.592 1005.614 643.716 1000.389 642.543 C 991.841 640.622 971.442 638.684 971.439 638.684 C 971.439 638.684 971.439 638.684 971.439 638.684 C 972.809 637.193 974.881 635.398 976.004 633.714 C 978.312 630.252 980.377 624.990 981.531 620.992 C 983.099 615.563 984.579 607.991 984.236 602.350 C 983.830 595.652 980.600 587.081 978.215 580.810 C 973.505 568.425 964.904 552.876 958.331 541.370 C 949.898 526.609 937.511 507.570 927.572 493.779 C 917.216 479.410 902.525 460.852 890.651 447.710 C 879.924 435.836 864.734 420.769 852.660 410.267 C 834.372 394.358 808.183 375.281 788.260 361.475 C 771.888 350.130 749.236 336.220 732.192 325.913 C 721.676 319.554 707.480 311.362 696.734 305.400 C 680.030 296.134 640.466 275.612 640.461 275.609 C 640.461 275.609 640.461 275.609 640.461 275.609 C 649.411 263.068 661.387 246.377 670.295 233.805 C 676.903 224.480 686.822 212.723 692.221 202.650 C 694.367 198.646 697.619 193.175 697.979 188.647 C 698.297 184.661 696.837 179.215 695.030 175.648 C 693.170 171.976 689.212 167.900 686.025 165.296 C 681.972 161.986 675.670 158.681 670.774 156.834 C 662.092 153.558 649.706 151.313 640.443 150.761 C 629.234 150.093 614.339 152.993 603.147 153.896 C 591.471 154.838 575.913 156.239 564.218 156.904 C 544.628 158.016 518.468 158.680 498.852 159.140 C 488.745 159.377 465.158 159.611 465.155 159.612 C 465.155 159.612 465.155 159.612 465.155 159.612 C 464.418 166.626 463.290 175.964 462.699 182.992 C 462.018 191.092 461.194 201.907 461.007 210.033 C 460.707 223.094 461.095 240.532 461.893 253.573 C 462.980 271.332 465.062 295.023 468.080 312.558 C 470.318 325.563 473.679 342.969 478.218 355.359 C 480.003 360.232 482.743 366.703 485.753 370.930 C 488.057 374.166 491.699 378.224 495.048 380.362 C 497.621 382.005 501.554 383.574 504.590 383.903 C 508.929 384.373 514.788 382.903 518.958 381.615 C 525.663 379.545 533.912 374.876 539.967 371.331 C 547.227 367.081 556.348 360.489 563.002 355.342 C 566.484 352.648 574.186 345.846 574.187 345.845 "/>
<path fill="#99c8dd" fill-rule="evenodd" stroke="none" d="M 732.771 320.052 C 706.208 303.704 671.277 281.128 644.922 264.446 C 644.924 264.443 659.920 246.267 663.887 237.107 C 665.924 232.401 666.672 225.471 667.866 220.485 C 667.859 220.483 622.033 203.319 601.733 198.195 C 577.507 192.079 543.929 190.076 519.601 184.381 C 511.353 182.451 500.456 179.380 492.480 176.527 C 486.044 174.224 477.507 170.893 471.518 167.598 C 469.733 166.616 467.553 164.980 465.853 163.858 C 465.853 163.859 465.871 174.529 466.429 179.059 C 468.241 193.768 473.864 212.836 477.567 227.186 C 482.143 244.918 487.742 268.798 494.362 285.872 C 500.535 301.791 510.495 322.443 519.618 336.875 C 524.720 344.945 533.215 354.522 539.042 362.085 C 539.044 362.083 555.996 351.930 562.922 347.066 C 575.349 338.340 590.714 325.089 602.624 315.670 C 602.634 315.678 674.104 366.692 703.153 390.582 C 732.179 414.453 770.749 446.846 795.990 474.689 C 833.602 516.181 875.129 578.781 905.972 625.524 C 912.761 635.812 922.299 649.368 927.346 660.613 C 928.085 662.260 928.708 664.599 929.292 666.307 C 929.293 666.306 936.725 661.210 940.002 659.166 C 947.566 654.449 958.344 649.297 965.763 644.354 C 971.439 640.573 978.430 634.720 983.858 630.591 C 986.795 625.078 992.801 618.403 993.648 612.214 C 996.105 594.254 983.733 570.799 975.878 554.461 C 958.205 517.704 924.409 473.843 896.550 444.056 C 865.638 411.004 817.108 374.178 779.938 348.363 C 766.384 338.948 746.826 328.703 732.771 320.052 M 983.858 630.591 C 983.858 630.591 983.858 630.591 983.858 630.591 Z" clip-path="url(#8ce2f8bb-b65b-48e1-b0e5-7a50a81a4487)"/>
<path fill="none" stroke="#000000" stroke-width="6" stroke-opacity="0.000000" stroke-linecap="round" stroke-linejoin="round" d="M 644.922 264.446 C 644.922 264.446 644.922 264.446 644.922 264.446 C 671.277 281.128 706.208 303.704 732.771 320.052 C 746.826 328.703 766.384 338.948 779.938 348.363 C 817.108 374.178 865.638 411.004 896.550 444.056 C 924.409 473.843 958.205 517.704 975.878 554.461 C 983.733 570.799 996.105 594.254 993.648 612.214 C 992.801 618.403 986.795 625.078 983.858 630.591 C 983.858 630.591 983.858 630.591 983.858 630.591 C 978.430 634.720 971.439 640.573 965.763 644.354 C 958.344 649.297 947.566 654.449 940.002 659.166 C 936.725 661.210 929.293 666.306 929.292 666.307 C 929.292 666.307 929.292 666.307 929.292 666.307 C 928.708 664.599 928.085 662.260 927.346 660.613 C 922.299 649.368 912.761 635.812 905.972 625.524 C 875.129 578.781 833.602 516.181 795.990 474.689 C 770.749 446.846 732.179 414.453 703.153 390.582 C 674.104 366.692 602.634 315.678 602.624 315.670 C 602.624 315.670 602.624 315.670 602.624 315.670 C 590.714 325.089 575.349 338.340 562.922 347.066 C 555.996 351.930 539.044 362.083 539.042 362.085 C 539.042 362.085 539.042 362.085 539.042 362.085 C 533.215 354.522 524.720 344.945 519.618 336.875 C 510.495 322.443 500.535 301.791 494.362 285.872 C 487.742 268.798 482.143 244.918 477.567 227.186 C 473.864 212.836 468.241 193.768 466.429 179.059 C 465.871 174.529 465.853 163.859 465.853 163.858 C 465.853 163.858 465.853 163.858 465.853 163.858 C 467.553 164.980 469.733 166.616 471.518 167.598 C 477.507 170.893 486.044 174.224 492.480 176.527 C 500.456 179.380 511.353 182.451 519.601 184.381 C 543.929 190.076 577.507 192.079 601.733 198.195 C 622.033 203.319 667.859 220.483 667.866 220.485 C 667.866 220.485 667.866 220.485 667.866 220.485 C 666.672 225.471 665.924 232.401 663.887 237.107 C 659.920 246.267 644.924 264.443 644.922 264.446 " clip-path="url(#8ce2f8bb-b65b-48e1-b0e5-7a50a81a4487)"/>
<path fill="#c0e4f1" fill-rule="evenodd" stroke="none" d="M 1052.914 993.240 C 1059.104 995.385 1066.982 999.217 1073.011 1001.778 C 1073.010 1001.778 1063.506 1001.324 1059.495 1000.643 C 1055.837 1000.023 1051.074 998.621 1047.515 997.575 C 1040.046 995.379 1029.991 992.542 1022.936 989.250 C 1015.216 985.648 1005.547 979.518 998.706 974.441 C 990.284 968.191 978.586 959.757 972.705 951.074 C 969.140 945.811 966.542 937.511 964.942 931.360 C 963.029 924.004 962.833 913.749 961.675 906.237 C 960.492 898.568 958.049 888.478 957.124 880.773 C 956.498 875.549 955.764 868.531 955.964 863.273 C 956.072 860.427 956.654 856.654 957.199 853.858 C 957.687 851.353 958.691 848.093 959.331 845.622 C 959.227 848.569 959.001 852.496 958.984 855.445 C 958.969 858.235 959.007 861.960 959.206 864.743 C 959.472 868.451 960.158 873.368 960.713 877.044 C 961.379 881.453 962.562 887.284 963.357 891.671 C 964.188 896.265 965.068 902.436 966.133 906.981 C 968.504 917.095 970.899 931.128 976.018 940.167 C 982.562 951.724 995.637 964.533 1006.277 972.480 C 1015.397 979.291 1029.455 985.646 1040.102 989.671 C 1043.834 991.081 1049.144 991.934 1052.914 993.240 M 959.331 845.622 C 959.331 845.622 959.331 845.622 959.331 845.622 Z" clip-path="url(#8ce2f8bb-b65b-48e1-b0e5-7a50a81a4487)"/>
<path fill="none" stroke="#000000" stroke-width="6" stroke-opacity="0.000000" stroke-linecap="round" stroke-linejoin="round" d="M 1073.011 1001.778 C 1073.011 1001.778 1073.011 1001.778 1073.011 1001.778 C 1066.982 999.217 1059.104 995.385 1052.914 993.240 C 1049.144 991.934 1043.834 991.081 1040.102 989.671 C 1029.455 985.646 1015.397 979.291 1006.277 972.480 C 995.637 964.533 982.562 951.724 976.018 940.167 C 970.899 931.128 968.504 917.095 966.133 906.981 C 965.068 902.436 964.188 896.265 963.357 891.671 C 962.562 887.284 961.379 881.453 960.713 877.044 C 960.158 873.368 959.472 868.451 959.206 864.743 C 959.007 861.960 958.969 858.235 958.984 855.445 C 959.001 852.496 959.227 848.569 959.331 845.622 C 959.331 845.622 959.331 845.622 959.331 845.622 C 958.691 848.093 957.687 851.353 957.199 853.858 C 956.654 856.654 956.072 860.427 955.964 863.273 C 955.764 868.531 956.498 875.549 957.124 880.773 C 958.049 888.478 960.492 898.568 961.675 906.237 C 962.833 913.749 963.029 924.004 964.942 931.360 C 966.542 937.511 969.140 945.811 972.705 951.074 C 978.586 959.757 990.284 968.191 998.706 974.441 C 1005.547 979.518 1015.216 985.648 1022.936 989.250 C 1029.991 992.542 1040.046 995.379 1047.515 997.575 C 1051.074 998.621 1055.837 1000.023 1059.495 1000.643 C 1063.506 1001.324 1073.010 1001.778 1073.011 1001.778 " clip-path="url(#8ce2f8bb-b65b-48e1-b0e5-7a50a81a4487)"/>
<path fill="#c0e4f1" fill-rule="evenodd" stroke="#000000" stroke-width="6" stroke-opacity="0.000000" stroke-linecap="round" stroke-linejoin="round" d="M 984.735 880.096 C 984.735 880.096 984.735 880.096 984.735 880.096 C 986.847 881.551 990.212 882.911 991.774 884.944 C 993.298 886.929 993.916 890.387 994.585 892.798 C 995.592 896.424 996.121 901.447 996.977 905.112 C 998.474 911.527 999.920 920.371 1002.855 926.268 C 1007.214 935.026 1016.461 944.642 1023.062 951.863 C 1028.730 958.062 1036.556 966.223 1043.357 971.153 C 1053.137 978.242 1069.037 983.055 1078.986 989.904 C 1082.638 992.418 1086.890 996.578 1090.277 999.438 C 1090.277 999.438 1090.277 999.438 1090.277 999.438 C 1081.583 995.967 1069.634 992.126 1061.298 987.868 C 1051.509 982.868 1039.129 974.856 1030.405 968.171 C 1024.962 964.001 1018.067 957.921 1013.410 952.888 C 1008.469 947.548 1002.017 940.094 998.661 933.639 C 995.132 926.851 992.701 916.770 991.046 909.300 C 989.976 904.471 989.838 897.798 988.746 892.974 C 987.853 889.027 984.736 880.098 984.735 880.096 C 984.735 880.096 984.735 880.096 984.735 880.096 Z" clip-path="url(#8ce2f8bb-b65b-48e1-b0e5-7a50a81a4487)"/>
<path fill="#8cbcda" fill-rule="evenodd" stroke="#000000" stroke-width="6" stroke-opacity="0.000000" stroke-linecap="round" stroke-linejoin="round" d="M 1020.033 649.092 C 1020.033 649.092 1020.033 649.092 1020.033 649.092 C 1017.128 648.464 1013.279 647.497 1010.349 647.000 C 999.782 645.206 985.427 641.284 974.848 643.001 C 965.770 644.475 955.055 651.358 946.925 655.659 C 941.461 658.549 934.575 663.111 929.281 666.305 C 929.281 666.305 929.281 666.305 929.281 666.305 C 929.283 666.304 939.397 657.561 944.083 654.278 C 950.072 650.083 958.588 645.277 965.033 641.826 C 967.757 640.367 971.469 638.568 974.292 637.311 C 975.348 636.841 976.709 636.000 977.855 635.846 C 986.320 634.705 997.480 639.519 1005.657 641.991 C 1008.818 642.947 1013.117 644.177 1015.970 645.839 C 1017.319 646.626 1018.814 648.116 1020.033 649.092 M 929.281 666.305 C 929.281 666.305 929.281 666.305 929.281 666.305 Z" clip-path="url(#8ce2f8bb-b65b-48e1-b0e5-7a50a81a4487)"/>
<path fill="#8cbcda" fill-rule="evenodd" stroke="none" d="M 971.436 638.707 C 971.436 638.707 971.436 638.707 971.436 638.707 C 972.974 637.704 975.025 636.368 976.564 635.365 C 976.564 635.365 976.564 635.365 976.564 635.365 C 977.774 633.629 979.511 631.395 980.597 629.578 C 984.327 623.336 990.434 615.003 991.173 607.769 C 993.271 587.215 978.448 560.954 969.078 542.541 C 957.767 520.312 936.540 494.200 920.745 474.898 C 888.421 435.395 843.927 382.740 803.431 351.669 C 762.902 320.572 653.919 270.201 653.904 270.193 C 669.782 248.801 702.138 225.111 706.828 198.887 C 708.425 189.960 705.430 177.102 700.905 169.243 C 695.488 159.836 683.638 149.476 673.485 145.635 C 651.826 137.443 619.509 148.111 596.374 149.112 C 570.850 150.216 536.818 151.693 511.287 152.635 C 496.884 153.167 463.274 154.215 463.269 154.215 C 461.208 176.052 456.545 205.072 456.398 227.006 C 456.206 255.440 458.193 293.710 464.474 321.441 C 468.536 339.371 472.412 366.039 485.419 379.032 C 491.035 384.642 501.690 389.624 509.628 389.712 C 524.792 389.881 541.859 375.031 555.121 367.674 C 560.634 364.616 567.148 354.284 573.001 356.629 C 573.588 356.864 573.820 357.855 574.144 358.397 C 584.915 376.440 596.924 401.817 606.897 420.313 C 621.155 446.757 639.326 482.529 655.174 508.052 C 673.467 537.514 698.727 576.555 721.379 602.815 C 742.815 627.664 776.694 655.772 800.807 678.033 C 814.763 690.917 831.861 710.137 847.814 720.446 C 856.675 726.171 869.243 735.858 879.767 735.129 C 886.476 734.665 899.181 723.930 899.183 723.929 C 901.270 719.613 904.447 714.028 906.140 709.543 C 906.984 707.308 908.361 701.897 908.361 701.896 C 905.004 704.309 900.711 707.805 897.170 709.940 C 891.375 713.434 883.659 719.605 876.896 719.829 C 872.234 719.984 866.467 716.548 862.321 714.410 C 852.922 709.563 841.781 700.681 833.563 694.025 C 820.085 683.111 803.669 666.738 791.316 654.565 C 773.356 636.868 749.359 613.208 733.171 593.877 C 716.361 573.804 696.426 545.042 681.770 523.346 C 663.928 496.932 642.125 460.412 625.604 433.152 C 609.740 406.975 589.650 371.438 573.775 345.268 C 571.469 341.466 565.973 332.668 565.972 332.667 C 560.484 337.651 553.499 344.690 547.678 349.282 C 542.777 353.147 536.038 358.133 530.514 361.040 C 523.980 364.478 514.802 371.007 507.517 369.807 C 499.836 368.542 491.769 359.740 487.620 353.154 C 471.906 328.206 474.817 285.496 471.572 256.191 C 469.120 234.051 468.390 204.311 467.159 182.070 C 466.874 176.903 466.263 164.847 466.262 164.846 C 470.572 167.344 476.104 171.090 480.628 173.175 C 487.130 176.169 496.198 179.413 503.194 180.928 C 517.259 183.973 536.713 183.101 551.016 184.691 C 570.342 186.839 597.402 186.111 615.155 194.045 C 630.165 200.753 657.540 228.775 657.545 228.779 C 655.008 232.476 651.843 237.566 649.088 241.104 C 642.770 249.222 626.181 266.616 626.178 266.619 C 632.375 270.235 640.810 274.777 646.835 278.673 C 656.230 284.748 668.023 293.923 677.101 300.463 C 701.562 318.084 734.589 341.021 758.616 359.229 C 776.839 373.038 801.287 391.348 818.303 406.619 C 839.037 425.225 864.979 451.945 883.392 472.850 C 897.930 489.357 916.420 512.223 928.922 530.321 C 939.440 545.548 953.247 566.254 960.706 583.191 C 965.936 595.066 972.605 611.597 973.366 624.551 C 973.617 628.830 971.436 638.706 971.436 638.707 C 971.436 638.707 971.436 638.707 971.436 638.707 Z" clip-path="url(#8ce2f8bb-b65b-48e1-b0e5-7a50a81a4487)"/>
<path fill="none" stroke="#000000" stroke-width="6" stroke-opacity="0.000000" stroke-linecap="round" stroke-linejoin="round" d="M 463.269 154.215 C 463.269 154.215 463.269 154.215 463.269 154.215 C 463.274 154.215 496.884 153.167 511.287 152.635 C 536.818 151.693 570.850 150.216 596.374 149.112 C 619.509 148.111 651.826 137.443 673.485 145.635 C 683.638 149.476 695.488 159.836 700.905 169.243 C 705.430 177.102 708.425 189.960 706.828 198.887 C 702.138 225.111 669.782 248.801 653.904 270.193 C 653.904 270.193 653.904 270.193 653.904 270.193 C 653.919 270.201 762.902 320.572 803.431 351.669 C 843.927 382.740 888.421 435.395 920.745 474.898 C 936.540 494.200 957.767 520.312 969.078 542.541 C 978.448 560.954 993.271 587.215 991.173 607.769 C 990.434 615.003 984.327 623.336 980.597 629.578 C 979.511 631.395 977.774 633.629 976.564 635.365 C 975.025 636.368 972.974 637.704 971.436 638.707 C 971.436 638.707 971.436 638.707 971.436 638.707 C 971.436 638.706 973.617 628.830 973.366 624.551 C 972.605 611.597 965.936 595.066 960.706 583.191 C 953.247 566.254 939.440 545.548 928.922 530.321 C 916.420 512.223 897.930 489.357 883.392 472.850 C 864.979 451.945 839.037 425.225 818.303 406.619 C 801.287 391.348 776.839 373.038 758.616 359.229 C 734.589 341.021 701.562 318.084 677.101 300.463 C 668.023 293.923 656.230 284.748 646.835 278.673 C 640.810 274.777 632.375 270.235 626.178 266.619 C 626.178 266.619 626.178 266.619 626.178 266.619 C 626.181 266.616 642.770 249.222 649.088 241.104 C 651.843 237.566 655.008 232.476 657.545 228.779 C 657.545 228.779 657.545 228.779 657.545 228.779 C 657.540 228.775 630.165 200.753 615.155 194.045 C 597.402 186.111 570.342 186.839 551.016 184.691 C 536.713 183.101 517.259 183.973 503.194 180.928 C 496.198 179.413 487.130 176.169 480.628 173.175 C 476.104 171.090 470.572 167.344 466.262 164.846 C 466.262 164.846 466.262 164.846 466.262 164.846 C 466.263 164.847 466.874 176.903 467.159 182.070 C 468.390 204.311 469.120 234.051 471.572 256.191 C 474.817 285.496 471.906 328.206 487.620 353.154 C 491.769 359.740 499.836 368.542 507.517 369.807 C 514.802 371.007 523.980 364.478 530.514 361.040 C 536.038 358.133 542.777 353.147 547.678 349.282 C 553.499 344.690 560.484 337.651 565.972 332.667 C 565.972 332.667 565.972 332.667 565.972 332.667 C 565.973 332.668 571.469 341.466 573.775 345.268 C 589.650 371.438 609.740 406.975 625.604 433.152 C 642.125 460.412 663.928 496.932 681.770 523.346 C 696.426 545.042 716.361 573.804 733.171 593.877 C 749.359 613.208 773.356 636.868 791.316 654.565 C 803.669 666.738 820.085 683.111 833.563 694.025 C 841.781 700.681 852.922 709.563 862.321 714.410 C 866.467 716.548 872.234 719.984 876.896 719.829 C 883.659 719.605 891.375 713.434 897.170 709.940 C 900.711 707.805 905.004 704.309 908.361 701.896 C 908.361 701.896 908.361 701.896 908.361 701.896 C 908.361 701.897 906.984 707.308 906.140 709.543 C 904.447 714.028 901.270 719.613 899.183 723.929 C 899.183 723.929 899.183 723.929 899.183 723.929 C 899.181 723.930 886.476 734.665 879.767 735.129 C 869.243 735.858 856.675 726.171 847.814 720.446 C 831.861 710.137 814.763 690.917 800.807 678.033 C 776.694 655.772 742.815 627.664 721.379 602.815 C 698.727 576.555 673.467 537.514 655.174 508.052 C 639.326 482.529 621.155 446.757 606.897 420.313 C 596.924 401.817 584.915 376.440 574.144 358.397 C 573.820 357.855 573.588 356.864 573.001 356.629 C 567.148 354.284 560.634 364.616 555.121 367.674 C 541.859 375.031 524.792 389.881 509.628 389.712 C 501.690 389.624 491.035 384.642 485.419 379.032 C 472.412 366.039 468.536 339.371 464.474 321.441 C 458.193 293.710 456.206 255.440 456.398 227.006 C 456.545 205.072 461.208 176.052 463.269 154.215 M 976.564 635.365 C 976.564 635.365 976.564 635.365 976.564 635.365 M 971.436 638.707 C 971.436 638.707 971.436 638.707 971.436 638.707 " clip-path="url(#8ce2f8bb-b65b-48e1-b0e5-7a50a81a4487)"/>
<path fill="#8cbcda" fill-rule="evenodd" stroke="none" d="M 1035.035 733.906 C 1035.035 733.906 1035.035 733.906 1035.035 733.906 C 1033.132 734.243 1030.625 735.020 1028.692 735.028 C 1025.911 735.039 1021.999 734.728 1019.573 733.369 C 1016.660 731.738 1013.627 728.026 1012.263 724.978 C 1010.501 721.040 1010.584 714.995 1010.701 710.682 C 1010.810 706.676 1012.977 701.501 1012.847 697.495 C 1012.764 694.945 1011.607 691.671 1011.076 689.175 C 1011.076 689.175 1011.076 689.175 1011.076 689.175 C 1013.748 687.612 1019.983 683.967 1019.984 683.966 C 1020.434 687.046 1021.519 691.120 1021.485 694.233 C 1021.447 697.768 1019.830 702.328 1019.480 705.846 C 1019.103 709.641 1018.395 714.816 1019.149 718.555 C 1019.902 722.289 1021.555 727.564 1024.372 730.130 C 1026.881 732.415 1035.034 733.906 1035.035 733.906 C 1035.035 733.906 1035.035 733.906 1035.035 733.906 Z" clip-path="url(#8ce2f8bb-b65b-48e1-b0e5-7a50a81a4487)"/>
<path fill="none" stroke="#000000" stroke-width="6" stroke-opacity="0.000000" stroke-linecap="round" stroke-linejoin="round" d="M 1019.984 683.966 C 1019.984 683.966 1019.984 683.966 1019.984 683.966 C 1019.983 683.967 1013.748 687.612 1011.076 689.175 C 1011.607 691.671 1012.764 694.945 1012.847 697.495 C 1012.977 701.501 1010.810 706.676 1010.701 710.682 C 1010.584 714.995 1010.501 721.040 1012.263 724.978 C 1013.627 728.026 1016.660 731.738 1019.573 733.369 C 1021.999 734.728 1025.911 735.039 1028.692 735.028 C 1030.625 735.020 1033.132 734.243 1035.035 733.906 C 1035.035 733.906 1035.035 733.906 1035.035 733.906 C 1035.034 733.906 1026.881 732.415 1024.372 730.130 C 1021.555 727.564 1019.902 722.289 1019.149 718.555 C 1018.395 714.816 1019.103 709.641 1019.480 705.846 C 1019.830 702.328 1021.447 697.768 1021.485 694.233 C 1021.519 691.120 1020.434 687.046 1019.984 683.966 M 1011.076 689.175 C 1011.076 689.175 1011.076 689.175 1011.076 689.175 M 1035.035 733.906 C 1035.035 733.906 1035.035 733.906 1035.035 733.906 " clip-path="url(#8ce2f8bb-b65b-48e1-b0e5-7a50a81a4487)"/>
<path fill="#8cbcda" fill-rule="evenodd" stroke="none" d="M 1308.226 717.998 C 1311.771 719.828 1316.560 722.145 1320.132 723.922 C 1320.126 723.918 1280.028 694.006 1260.934 684.472 C 1247.457 677.742 1228.050 672.024 1213.711 667.406 C 1204.802 664.537 1192.811 661.037 1183.721 658.801 C 1179.168 657.681 1173.075 656.200 1168.428 655.578 C 1164.964 655.115 1160.295 654.944 1156.801 654.849 C 1150.340 654.675 1141.692 654.505 1135.259 655.133 C 1132.491 655.403 1128.825 656.037 1126.122 656.691 C 1123.468 657.333 1120.046 658.607 1117.442 659.428 C 1117.442 659.428 1114.653 660.346 1113.457 660.740 C 1117.363 660.293 1122.548 659.406 1126.476 659.252 C 1133.917 658.960 1143.888 659.413 1151.272 660.374 C 1157.775 661.219 1166.326 663.209 1172.646 664.959 C 1180.514 667.138 1190.619 671.276 1198.377 673.816 C 1211.654 678.164 1229.740 682.795 1242.871 687.565 C 1248.870 689.744 1256.696 693.110 1262.546 695.662 C 1271.578 699.603 1283.535 705.066 1292.343 709.484 C 1297.176 711.908 1303.422 715.519 1308.226 717.998 M 1113.457 660.740 C 1113.457 660.740 1113.457 660.740 1113.457 660.740 Z" clip-path="url(#8ce2f8bb-b65b-48e1-b0e5-7a50a81a4487)"/>
<path fill="none" stroke="#000000" stroke-width="6" stroke-opacity="0.000000" stroke-linecap="round" stroke-linejoin="round" d="M 1320.132 723.922 C 1320.132 723.922 1320.132 723.922 1320.132 723.922 C 1316.560 722.145 1311.771 719.828 1308.226 717.998 C 1303.422 715.519 1297.176 711.908 1292.343 709.484 C 1283.535 705.066 1271.578 699.603 1262.546 695.662 C 1256.696 693.110 1248.870 689.744 1242.871 687.565 C 1229.740 682.795 1211.654 678.164 1198.377 673.816 C 1190.619 671.276 1180.514 667.138 1172.646 664.959 C 1166.326 663.209 1157.775 661.219 1151.272 660.374 C 1143.888 659.413 1133.917 658.960 1126.476 659.252 C 1122.548 659.406 1117.363 660.293 1113.457 660.740 C 1113.457 660.740 1113.457 660.740 1113.457 660.740 C 1114.653 660.346 1117.442 659.428 1117.442 659.428 C 1117.442 659.428 1117.442 659.428 1117.442 659.428 C 1120.046 658.607 1123.468 657.333 1126.122 656.691 C 1128.825 656.037 1132.491 655.403 1135.259 655.133 C 1141.692 654.505 1150.340 654.675 1156.801 654.849 C 1160.295 654.944 1164.964 655.115 1168.428 655.578 C 1173.075 656.200 1179.168 657.681 1183.721 658.801 C 1192.811 661.037 1204.802 664.537 1213.711 667.406 C 1228.050 672.024 1247.457 677.742 1260.934 684.472 C 1280.028 694.006 1320.126 723.918 1320.132 723.922 " clip-path="url(#8ce2f8bb-b65b-48e1-b0e5-7a50a81a4487)"/>
<path fill="#8cbcda" fill-rule="evenodd" stroke="none" d="M 1123.295 695.148 C 1122.041 693.562 1121.295 690.875 1120.439 689.044 C 1120.439 689.044 1121.614 689.230 1122.117 689.309 C 1122.118 689.310 1130.281 694.849 1134.163 696.455 C 1143.411 700.282 1156.997 701.376 1166.694 703.852 C 1175.360 706.065 1186.572 710.415 1195.379 711.973 C 1202.437 713.221 1212.162 712.475 1219.197 713.846 C 1224.494 714.879 1231.235 717.542 1236.382 719.167 C 1242.779 721.187 1251.195 724.254 1257.666 726.021 C 1263.844 727.708 1272.371 728.824 1278.487 730.721 C 1288.925 733.960 1302.771 738.994 1312.202 744.517 C 1314.956 746.130 1318.161 748.984 1320.716 750.898 C 1314.553 748.592 1306.450 745.192 1300.175 743.212 C 1290.774 740.245 1277.912 737.425 1268.329 735.117 C 1257.995 732.629 1244.103 729.795 1233.780 727.262 C 1227.089 725.620 1218.344 722.661 1211.563 721.441 C 1204.224 720.122 1194.151 720.407 1186.828 719.001 C 1181.638 718.005 1174.987 715.552 1169.872 714.219 C 1161.070 711.927 1148.631 711.039 1140.369 707.235 C 1134.668 704.611 1127.188 700.070 1123.295 695.148 M 1320.716 750.898 C 1320.716 750.898 1320.716 750.898 1320.716 750.898 Z" clip-path="url(#8ce2f8bb-b65b-48e1-b0e5-7a50a81a4487)"/>
<path fill="none" stroke="#000000" stroke-width="6" stroke-opacity="0.000000" stroke-linecap="round" stroke-linejoin="round" d="M 1120.439 689.044 C 1120.439 689.044 1120.439 689.044 1120.439 689.044 C 1121.295 690.875 1122.041 693.562 1123.295 695.148 C 1127.188 700.070 1134.668 704.611 1140.369 707.235 C 1148.631 711.039 1161.070 711.927 1169.872 714.219 C 1174.987 715.552 1181.638 718.005 1186.828 719.001 C 1194.151 720.407 1204.224 720.122 1211.563 721.441 C 1218.344 722.661 1227.089 725.620 1233.780 727.262 C 1244.103 729.795 1257.995 732.629 1268.329 735.117 C 1277.912 737.425 1290.774 740.245 1300.175 743.212 C 1306.450 745.192 1314.553 748.592 1320.716 750.898 C 1320.716 750.898 1320.716 750.898 1320.716 750.898 C 1318.161 748.984 1314.956 746.130 1312.202 744.517 C 1302.771 738.994 1288.925 733.960 1278.487 730.721 C 1272.371 728.824 1263.844 727.708 1257.666 726.021 C 1251.195 724.254 1242.779 721.187 1236.382 719.167 C 1231.235 717.542 1224.494 714.879 1219.197 713.846 C 1212.162 712.475 1202.437 713.221 1195.379 711.973 C 1186.572 710.415 1175.360 706.065 1166.694 703.852 C 1156.997 701.376 1143.411 700.282 1134.163 696.455 C 1130.281 694.849 1122.118 689.310 1122.117 689.309 C 1122.117 689.309 1122.117 689.309 1122.117 689.309 C 1121.614 689.230 1120.439 689.044 1120.439 689.044 " clip-path="url(#8ce2f8bb-b65b-48e1-b0e5-7a50a81a4487)"/>
<path fill="#8cbcda" fill-rule="evenodd" stroke="none" d="M 1092.603 742.595 C 1091.245 742.695 1089.449 742.994 1088.098 743.165 C 1088.099 743.165 1099.625 745.308 1104.571 746.190 C 1113.892 747.851 1126.308 750.144 1135.671 751.546 C 1148.857 753.521 1166.604 754.967 1179.766 757.093 C 1187.186 758.292 1196.993 760.374 1204.360 761.859 C 1210.823 763.162 1219.483 764.729 1225.871 766.361 C 1230.114 767.445 1235.677 769.237 1239.858 770.542 C 1245.895 772.426 1254.035 774.713 1259.899 777.083 C 1267.394 780.112 1276.833 785.393 1284.090 788.955 C 1284.090 788.954 1282.344 784.752 1281.068 783.320 C 1275.455 777.022 1264.446 772.721 1256.913 768.923 C 1252.362 766.629 1246.059 764.049 1241.287 762.261 C 1236.880 760.609 1230.914 758.624 1226.367 757.403 C 1218.434 755.272 1207.662 753.167 1199.553 751.858 C 1190.389 750.379 1178.050 749.241 1168.815 748.307 C 1162.076 747.626 1153.058 747.059 1146.323 746.337 C 1140.091 745.669 1131.831 744.344 1125.595 743.711 C 1120.781 743.223 1114.337 742.839 1109.512 742.465 C 1104.439 742.504 1097.662 742.222 1092.603 742.595 M 1109.512 742.465 C 1109.512 742.465 1109.512 742.465 1109.512 742.465 Z" clip-path="url(#8ce2f8bb-b65b-48e1-b0e5-7a50a81a4487)"/>
<path fill="none" stroke="#000000" stroke-width="6" stroke-opacity="0.000000" stroke-linecap="round" stroke-linejoin="round" d="M 1088.098 743.165 C 1088.098 743.165 1088.098 743.165 1088.098 743.165 C 1089.449 742.994 1091.245 742.695 1092.603 742.595 C 1097.662 742.222 1104.439 742.504 1109.512 742.465 C 1109.512 742.465 1109.512 742.465 1109.512 742.465 C 1114.337 742.839 1120.781 743.223 1125.595 743.711 C 1131.831 744.344 1140.091 745.669 1146.323 746.337 C 1153.058 747.059 1162.076 747.626 1168.815 748.307 C 1178.050 749.241 1190.389 750.379 1199.553 751.858 C 1207.662 753.167 1218.434 755.272 1226.367 757.403 C 1230.914 758.624 1236.880 760.609 1241.287 762.261 C 1246.059 764.049 1252.362 766.629 1256.913 768.923 C 1264.446 772.721 1275.455 777.022 1281.068 783.320 C 1282.344 784.752 1284.090 788.954 1284.090 788.955 C 1284.090 788.955 1284.090 788.955 1284.090 788.955 C 1276.833 785.393 1267.394 780.112 1259.899 777.083 C 1254.035 774.713 1245.895 772.426 1239.858 770.542 C 1235.677 769.237 1230.114 767.445 1225.871 766.361 C 1219.483 764.729 1210.823 763.162 1204.360 761.859 C 1196.993 760.374 1187.186 758.292 1179.766 757.093 C 1166.604 754.967 1148.857 753.521 1135.671 751.546 C 1126.308 750.144 1113.892 747.851 1104.571 746.190 C 1099.625 745.308 1088.099 743.165 1088.098 743.165 " clip-path="url(#8ce2f8bb-b65b-48e1-b0e5-7a50a81a4487)"/>
<path fill="#8cbcda" fill-rule="evenodd" stroke="none" d="M 1099.360 769.845 C 1098.818 769.835 1098.095 769.817 1097.552 769.804 C 1097.556 769.807 1125.501 791.199 1138.932 797.883 C 1143.327 800.070 1149.740 801.688 1154.291 803.528 C 1159.725 805.726 1166.755 809.165 1172.152 811.452 C 1178.110 813.977 1186.129 817.165 1192.152 819.529 C 1198.947 822.196 1208.057 825.625 1214.892 828.188 C 1223.300 831.342 1234.621 835.259 1242.976 838.553 C 1248.645 840.788 1256.061 844.120 1261.717 846.387 C 1267.495 848.703 1275.315 851.499 1281.091 853.819 C 1289.403 857.159 1300.501 861.603 1308.607 865.417 C 1318.148 869.906 1330.407 876.821 1339.750 881.709 C 1339.748 881.708 1330.952 871.185 1326.424 867.486 C 1309.752 853.862 1283.276 841.681 1264.055 831.978 C 1254.207 827.006 1240.670 821.212 1230.531 816.864 C 1224.799 814.407 1217.023 811.451 1211.293 808.990 C 1197.804 803.198 1180.430 794.050 1166.728 788.781 C 1150.551 782.560 1128.505 775.376 1111.647 771.351 C 1109.087 770.739 1105.606 770.246 1103.017 769.773 C 1102.422 769.801 1101.629 769.858 1101.033 769.868 C 1100.531 769.877 1099.862 769.854 1099.360 769.845 M 1103.017 769.773 C 1103.017 769.773 1103.017 769.773 1103.017 769.773 Z" clip-path="url(#8ce2f8bb-b65b-48e1-b0e5-7a50a81a4487)"/>
<path fill="none" stroke="#000000" stroke-width="6" stroke-opacity="0.000000" stroke-linecap="round" stroke-linejoin="round" d="M 1097.552 769.804 C 1097.552 769.804 1097.552 769.804 1097.552 769.804 C 1098.095 769.817 1098.818 769.835 1099.360 769.845 C 1099.862 769.854 1100.531 769.877 1101.033 769.868 C 1101.629 769.858 1102.422 769.801 1103.017 769.773 C 1103.017 769.773 1103.017 769.773 1103.017 769.773 C 1105.606 770.246 1109.087 770.739 1111.647 771.351 C 1128.505 775.376 1150.551 782.560 1166.728 788.781 C 1180.430 794.050 1197.804 803.198 1211.293 808.990 C 1217.023 811.451 1224.799 814.407 1230.531 816.864 C 1240.670 821.212 1254.207 827.006 1264.055 831.978 C 1283.276 841.681 1309.752 853.862 1326.424 867.486 C 1330.952 871.185 1339.748 881.708 1339.750 881.709 C 1339.750 881.709 1339.750 881.709 1339.750 881.709 C 1330.407 876.821 1318.148 869.906 1308.607 865.417 C 1300.501 861.603 1289.403 857.159 1281.091 853.819 C 1275.315 851.499 1267.495 848.703 1261.717 846.387 C 1256.061 844.120 1248.645 840.788 1242.976 838.553 C 1234.621 835.259 1223.300 831.342 1214.892 828.188 C 1208.057 825.625 1198.947 822.196 1192.152 819.529 C 1186.129 817.165 1178.110 813.977 1172.152 811.452 C 1166.755 809.165 1159.725 805.726 1154.291 803.528 C 1149.740 801.688 1143.327 800.070 1138.932 797.883 C 1125.501 791.199 1097.556 769.807 1097.552 769.804 " clip-path="url(#8ce2f8bb-b65b-48e1-b0e5-7a50a81a4487)"/>
<path fill="#8cbcda" fill-rule="evenodd" stroke="none" d="M 1088.478 819.082 C 1087.434 819.636 1086.036 820.366 1084.990 820.916 C 1084.991 820.917 1091.831 825.608 1094.530 827.913 C 1098.957 831.695 1103.931 837.732 1108.211 841.679 C 1113.461 846.518 1120.679 852.761 1126.426 857.000 C 1136.592 864.498 1151.412 872.641 1162.011 879.514 C 1168.563 883.763 1177.176 889.616 1183.706 893.898 C 1189.632 897.784 1197.591 902.878 1203.525 906.751 C 1209.912 910.920 1218.450 916.447 1224.774 920.712 C 1237.868 929.545 1255.287 941.398 1268.008 950.761 C 1277.147 957.488 1288.928 966.993 1297.893 973.949 C 1297.892 973.948 1287.500 961.022 1282.620 955.862 C 1278.951 951.982 1273.676 947.183 1269.718 943.597 C 1260.167 934.946 1247.215 923.629 1237.077 915.675 C 1201.203 887.528 1150.801 853.360 1112.691 828.322 C 1107.923 825.190 1101.552 821.013 1096.565 818.243 C 1095.818 817.828 1094.787 817.342 1094.025 816.956 C 1093.225 817.257 1092.168 817.686 1091.359 817.961 C 1090.813 818.146 1090.053 818.299 1089.522 818.523 C 1089.194 818.661 1088.791 818.915 1088.478 819.082 M 1094.025 816.956 C 1094.025 816.956 1094.025 816.956 1094.025 816.956 Z" clip-path="url(#8ce2f8bb-b65b-48e1-b0e5-7a50a81a4487)"/>
<path fill="none" stroke="#000000" stroke-width="6" stroke-opacity="0.000000" stroke-linecap="round" stroke-linejoin="round" d="M 1084.990 820.916 C 1084.990 820.916 1084.990 820.916 1084.990 820.916 C 1086.036 820.366 1087.434 819.636 1088.478 819.082 C 1088.791 818.915 1089.194 818.661 1089.522 818.523 C 1090.053 818.299 1090.813 818.146 1091.359 817.961 C 1092.168 817.686 1093.225 817.257 1094.025 816.956 C 1094.025 816.956 1094.025 816.956 1094.025 816.956 C 1094.787 817.342 1095.818 817.828 1096.565 818.243 C 1101.552 821.013 1107.923 825.190 1112.691 828.322 C 1150.801 853.360 1201.203 887.528 1237.077 915.675 C 1247.215 923.629 1260.167 934.946 1269.718 943.597 C 1273.676 947.183 1278.951 951.982 1282.620 955.862 C 1287.500 961.022 1297.892 973.948 1297.893 973.949 C 1297.893 973.949 1297.893 973.949 1297.893 973.949 C 1288.928 966.993 1277.147 957.488 1268.008 950.761 C 1255.287 941.398 1237.868 929.545 1224.774 920.712 C 1218.450 916.447 1209.912 910.920 1203.525 906.751 C 1197.591 902.878 1189.632 897.784 1183.706 893.898 C 1177.176 889.616 1168.563 883.763 1162.011 879.514 C 1151.412 872.641 1136.592 864.498 1126.426 857.000 C 1120.679 852.761 1113.461 846.518 1108.211 841.679 C 1103.931 837.732 1098.957 831.695 1094.530 827.913 C 1091.831 825.608 1084.991 820.917 1084.990 820.916 " clip-path="url(#8ce2f8bb-b65b-48e1-b0e5-7a50a81a4487)"/>
<path fill="#8cbcda" fill-rule="evenodd" stroke="none" d="M 1043.802 861.783 C 1043.802 861.783 1043.802 861.783 1043.802 861.783 C 1045.163 861.722 1047.025 861.224 1048.341 861.580 C 1049.222 861.818 1050.147 862.711 1050.937 863.169 C 1051.098 863.262 1051.343 863.343 1051.479 863.469 C 1054.176 865.970 1055.704 870.969 1057.041 874.397 C 1058.663 878.556 1059.574 884.510 1060.994 888.743 C 1063.015 894.771 1065.999 902.748 1068.899 908.407 C 1071.985 914.431 1076.999 921.989 1080.997 927.452 C 1084.482 932.215 1089.830 938.018 1093.607 942.553 C 1096.912 946.521 1101.458 951.701 1104.605 955.795 C 1107.959 960.158 1111.827 966.424 1115.224 970.753 C 1130.158 989.783 1156.630 1010.099 1168.830 1030.987 C 1169.711 1032.495 1171.039 1036.375 1171.039 1036.376 C 1169.161 1034.388 1166.733 1031.665 1164.781 1029.750 C 1164.047 1029.031 1163.025 1028.116 1162.259 1027.432 C 1160.315 1025.695 1157.690 1023.416 1155.684 1021.752 C 1153.934 1020.300 1151.545 1018.431 1149.757 1017.024 C 1143.864 1012.385 1135.670 1006.613 1129.989 1001.715 C 1126.201 998.450 1121.425 993.784 1117.906 990.232 C 1110.694 982.953 1101.461 972.870 1094.722 965.152 C 1088.356 957.862 1079.844 948.122 1074.189 940.267 C 1069.455 933.690 1063.418 924.652 1059.833 917.384 C 1055.525 908.651 1051.222 896.304 1048.633 886.917 C 1046.591 879.515 1043.802 861.786 1043.802 861.783 C 1043.802 861.783 1043.802 861.783 1043.802 861.783 Z" clip-path="url(#8ce2f8bb-b65b-48e1-b0e5-7a50a81a4487)"/>
<path fill="none" stroke="#000000" stroke-width="6" stroke-opacity="0.000000" stroke-linecap="round" stroke-linejoin="round" d="M 1171.039 1036.376 C 1171.039 1036.376 1171.039 1036.376 1171.039 1036.376 C 1171.039 1036.375 1169.711 1032.495 1168.830 1030.987 C 1156.630 1010.099 1130.158 989.783 1115.224 970.753 C 1111.827 966.424 1107.959 960.158 1104.605 955.795 C 1101.458 951.701 1096.912 946.521 1093.607 942.553 C 1089.830 938.018 1084.482 932.215 1080.997 927.452 C 1076.999 921.989 1071.985 914.431 1068.899 908.407 C 1065.999 902.748 1063.015 894.771 1060.994 888.743 C 1059.574 884.510 1058.663 878.556 1057.041 874.397 C 1055.704 870.969 1054.176 865.970 1051.479 863.469 C 1051.343 863.343 1051.098 863.262 1050.937 863.169 C 1050.147 862.711 1049.222 861.818 1048.341 861.580 C 1047.025 861.224 1045.163 861.722 1043.802 861.783 C 1043.802 861.783 1043.802 861.783 1043.802 861.783 C 1043.802 861.786 1046.591 879.515 1048.633 886.917 C 1051.222 896.304 1055.525 908.651 1059.833 917.384 C 1063.418 924.652 1069.455 933.690 1074.189 940.267 C 1079.844 948.122 1088.356 957.862 1094.722 965.152 C 1101.461 972.870 1110.694 982.953 1117.906 990.232 C 1121.425 993.784 1126.201 998.450 1129.989 1001.715 C 1135.670 1006.613 1143.864 1012.385 1149.757 1017.024 C 1151.545 1018.431 1153.934 1020.300 1155.684 1021.752 C 1157.690 1023.416 1160.315 1025.695 1162.259 1027.432 C 1163.025 1028.116 1164.047 1029.031 1164.781 1029.750 C 1166.733 1031.665 1169.161 1034.388 1171.039 1036.376 M 1043.802 861.783 C 1043.802 861.783 1043.802 861.783 1043.802 861.783 " clip-path="url(#8ce2f8bb-b65b-48e1-b0e5-7a50a81a4487)"/>
<path fill="#c0e4f1" fill-rule="evenodd" stroke="#000000" stroke-width="6" stroke-opacity="0.000000" stroke-linecap="round" stroke-linejoin="round" d="M 973.666 789.877 C 972.178 785.498 970.023 779.688 967.902 775.578 C 965.484 770.894 961.593 764.991 958.389 760.805 C 956.368 758.165 952.821 755.321 951.019 752.526 C 946.812 746.001 943.194 736.091 941.162 728.597 C 938.518 718.845 938.895 705.079 936.727 695.210 C 935.624 690.192 934.515 683.178 931.826 678.800 C 930.408 676.493 928.112 672.998 925.474 672.385 C 922.697 671.739 918.809 673.863 916.514 675.555 C 912.643 678.410 909.172 684.264 907.368 688.723 C 904.405 696.046 904.581 706.949 903.729 714.802 C 903.138 720.247 901.100 727.651 902.276 733.000 C 903.883 740.306 910.220 748.675 914.929 754.489 C 921.253 762.298 931.980 770.620 939.835 776.887 C 946.165 781.938 955.123 787.999 961.852 792.503 C 965.209 794.749 969.877 797.450 973.215 799.723 C 974.447 800.562 976.037 801.756 977.246 802.627 C 977.246 802.627 977.246 802.627 977.246 802.627 C 977.234 802.609 974.945 793.639 973.666 789.877 Z" clip-path="url(#8ce2f8bb-b65b-48e1-b0e5-7a50a81a4487)"/>
<path fill="#c0e4f1" fill-rule="evenodd" stroke="#000000" stroke-width="6" stroke-opacity="0.000000" stroke-linecap="round" stroke-linejoin="round" d="M 660.684 473.738 C 673.257 494.258 690.819 521.198 705.470 540.290 C 722.742 562.799 747.909 591.181 767.743 611.469 C 780.746 624.770 799.020 641.607 813.286 653.545 C 821.395 660.331 832.391 669.238 841.285 674.958 C 845.618 677.744 851.483 681.508 856.348 683.201 C 858.545 683.965 861.634 684.724 863.960 684.683 C 865.752 684.652 868.453 684.589 869.795 683.401 C 870.520 682.760 871.038 681.398 871.052 680.430 C 871.105 676.814 867.517 672.729 865.486 669.737 C 857.024 657.272 841.813 643.744 831.415 632.841 C 820.028 620.900 804.293 605.514 792.813 593.662 C 783.678 584.231 771.495 571.655 762.621 561.978 C 750.947 549.245 736.043 531.675 724.576 518.756 C 715.321 508.329 702.790 494.597 693.588 484.123 C 684.222 473.462 672.343 458.708 662.692 448.304 C 654.997 440.009 644.875 428.702 636.101 421.557 C 634.031 419.872 630.966 418.032 628.766 416.521 C 628.766 416.521 628.766 416.521 628.766 416.521 C 628.697 416.531 650.414 456.979 660.684 473.738 Z" clip-path="url(#8ce2f8bb-b65b-48e1-b0e5-7a50a81a4487)"/>
<path fill="#b8dfed" fill-rule="evenodd" stroke="none" d="M 509.810 182.996 C 505.805 181.897 500.495 180.329 496.503 179.186 C 496.506 179.186 514.306 178.490 521.930 178.091 C 537.145 177.296 557.441 176.274 572.616 174.911 C 585.085 173.791 601.558 170.524 614.070 170.104 C 624.201 169.763 638.056 168.910 647.823 171.621 C 655.465 173.741 665.840 178.115 671.203 183.957 C 674.105 187.119 676.397 192.704 677.294 196.901 C 677.725 198.919 677.860 201.774 677.374 203.780 C 676.235 208.480 671.976 213.715 669.198 217.673 C 665.281 223.255 659.058 229.936 654.600 235.096 C 652.531 237.492 649.698 240.623 647.597 242.992 C 646.226 240.085 644.906 235.908 643.025 233.301 C 637.822 226.095 628.443 218.246 620.797 213.713 C 610.691 207.722 595.132 204.000 583.839 200.760 C 571.497 197.220 554.556 194.426 542.079 191.398 C 532.357 189.039 519.457 185.643 509.810 182.996 M 647.597 242.992 C 647.597 242.992 647.597 242.992 647.597 242.992 Z" clip-path="url(#8ce2f8bb-b65b-48e1-b0e5-7a50a81a4487)"/>
<path fill="none" stroke="#000000" stroke-width="6" stroke-opacity="0.000000" stroke-linecap="round" stroke-linejoin="round" d="M 496.503 179.186 C 496.503 179.186 496.503 179.186 496.503 179.186 C 500.495 180.329 505.805 181.897 509.810 182.996 C 519.457 185.643 532.357 189.039 542.079 191.398 C 554.556 194.426 571.497 197.220 583.839 200.760 C 595.132 204.000 610.691 207.722 620.797 213.713 C 628.443 218.246 637.822 226.095 643.025 233.301 C 644.906 235.908 646.226 240.085 647.597 242.992 C 647.597 242.992 647.597 242.992 647.597 242.992 C 649.698 240.623 652.531 237.492 654.600 235.096 C 659.058 229.936 665.281 223.255 669.198 217.673 C 671.976 213.715 676.235 208.480 677.374 203.780 C 677.860 201.774 677.725 198.919 677.294 196.901 C 676.397 192.704 674.105 187.119 671.203 183.957 C 665.840 178.115 655.465 173.741 647.823 171.621 C 638.056 168.910 624.201 169.763 614.070 170.104 C 601.558 170.524 585.085 173.791 572.616 174.911 C 557.441 176.274 537.145 177.296 521.930 178.091 C 514.306 178.490 496.506 179.186 496.503 179.186 " clip-path="url(#8ce2f8bb-b65b-48e1-b0e5-7a50a81a4487)"/>
<path fill="#b1d9e8" fill-rule="evenodd" stroke="none" d="M 465.167 193.844 C 465.629 190.335 466.567 185.704 467.167 182.216 C 467.168 182.220 477.231 213.147 481.732 226.340 C 485.863 238.451 491.213 254.666 495.898 266.574 C 500.751 278.909 507.440 295.318 513.566 307.073 C 518.203 315.970 525.591 327.158 530.924 335.656 C 534.287 341.014 538.938 348.051 542.372 353.364 C 536.102 357.758 528.293 364.536 521.471 368.011 C 516.707 370.438 510.017 373.757 504.675 373.965 C 500.947 374.111 495.879 372.768 492.597 370.991 C 488.716 368.890 484.607 364.368 481.933 360.857 C 479.375 357.498 476.842 352.378 475.281 348.455 C 471.227 338.272 468.356 323.796 466.482 312.997 C 463.903 298.127 462.190 278.003 461.679 262.919 C 461.280 251.127 462.009 235.383 462.661 223.603 C 463.156 214.657 463.997 202.727 465.167 193.844 M 542.372 353.364 C 542.372 353.364 542.372 353.364 542.372 353.364 Z" clip-path="url(#8ce2f8bb-b65b-48e1-b0e5-7a50a81a4487)"/>
<path fill="none" stroke="#000000" stroke-width="6" stroke-opacity="0.000000" stroke-linecap="round" stroke-linejoin="round" d="M 467.167 182.216 C 467.167 182.216 467.167 182.216 467.167 182.216 C 466.567 185.704 465.629 190.335 465.167 193.844 C 463.997 202.727 463.156 214.657 462.661 223.603 C 462.009 235.383 461.280 251.127 461.679 262.919 C 462.190 278.003 463.903 298.127 466.482 312.997 C 468.356 323.796 471.227 338.272 475.281 348.455 C 476.842 352.378 479.375 357.498 481.933 360.857 C 484.607 364.368 488.716 368.890 492.597 370.991 C 495.879 372.768 500.947 374.111 504.675 373.965 C 510.017 373.757 516.707 370.438 521.471 368.011 C 528.293 364.536 536.102 357.758 542.372 353.364 C 542.372 353.364 542.372 353.364 542.372 353.364 C 538.938 348.051 534.287 341.014 530.924 335.656 C 525.591 327.158 518.203 315.970 513.566 307.073 C 507.440 295.318 500.751 278.909 495.898 266.574 C 491.213 254.666 485.863 238.451 481.732 226.340 C 477.231 213.147 467.168 182.220 467.167 182.216 " clip-path="url(#8ce2f8bb-b65b-48e1-b0e5-7a50a81a4487)"/>
<path fill="#a9d3e3" fill-rule="evenodd" stroke="none" d="M 490.110 208.094 C 485.550 200.312 479.677 189.815 475.206 181.980 C 475.210 181.984 504.095 207.223 516.462 218.058 C 530.021 229.937 547.994 245.898 561.624 257.697 C 596.123 287.559 641.644 327.989 677.432 356.293 C 700.291 374.372 732.700 395.951 755.581 414.002 C 777.121 430.994 806.594 453.053 825.561 472.875 C 850.400 498.833 878.112 538.323 897.979 568.257 C 906.568 581.198 916.665 599.315 924.232 612.878 C 927.063 617.953 931.516 624.455 933.344 629.971 C 934.525 633.534 935.252 638.563 935.393 642.314 C 935.572 647.072 935.350 653.584 933.880 658.113 C 933.011 660.792 930.669 663.847 929.293 666.305 C 929.293 666.305 928.554 667.699 928.237 668.297 C 928.227 668.283 865.130 567.839 833.636 528.039 C 820.413 511.329 801.083 490.408 786.060 475.296 C 758.728 447.802 719.683 413.800 690.097 388.746 C 670.910 372.498 644.561 351.745 624.611 336.442 C 618.200 331.524 609.471 325.207 602.982 320.392 C 602.979 320.395 582.825 338.213 574.186 345.850 C 568.569 337.172 560.938 325.690 555.461 316.921 C 543.497 297.766 528.418 271.692 516.785 252.335 C 508.802 239.051 497.944 221.467 490.110 208.094 M 574.186 345.850 C 574.186 345.850 574.186 345.850 574.186 345.850 Z" clip-path="url(#8ce2f8bb-b65b-48e1-b0e5-7a50a81a4487)"/>
<path fill="none" stroke="#000000" stroke-width="6" stroke-opacity="0.000000" stroke-linecap="round" stroke-linejoin="round" d="M 475.206 181.980 C 475.206 181.980 475.206 181.980 475.206 181.980 C 479.677 189.815 485.550 200.312 490.110 208.094 C 497.944 221.467 508.802 239.051 516.785 252.335 C 528.418 271.692 543.497 297.766 555.461 316.921 C 560.938 325.690 568.569 337.172 574.186 345.850 C 574.186 345.850 574.186 345.850 574.186 345.850 C 582.825 338.213 602.979 320.395 602.982 320.392 C 602.982 320.392 602.982 320.392 602.982 320.392 C 609.471 325.207 618.200 331.524 624.611 336.442 C 644.561 351.745 670.910 372.498 690.097 388.746 C 719.683 413.800 758.728 447.802 786.060 475.296 C 801.083 490.408 820.413 511.329 833.636 528.039 C 865.130 567.839 928.227 668.283 928.237 668.297 C 928.237 668.297 928.237 668.297 928.237 668.297 C 928.554 667.699 929.293 666.305 929.293 666.305 C 929.293 666.305 929.293 666.305 929.293 666.305 C 930.669 663.847 933.011 660.792 933.880 658.113 C 935.350 653.584 935.572 647.072 935.393 642.314 C 935.252 638.563 934.525 633.534 933.344 629.971 C 931.516 624.455 927.063 617.953 924.232 612.878 C 916.665 599.315 906.568 581.198 897.979 568.257 C 878.112 538.323 850.400 498.833 825.561 472.875 C 806.594 453.053 777.121 430.994 755.581 414.002 C 732.700 395.951 700.291 374.372 677.432 356.293 C 641.644 327.989 596.123 287.559 561.624 257.697 C 547.994 245.898 530.021 229.937 516.462 218.058 C 504.095 207.223 475.210 181.984 475.206 181.980 " clip-path="url(#8ce2f8bb-b65b-48e1-b0e5-7a50a81a4487)"/>
<path fill="#0066ff" fill-rule="evenodd" stroke="#000000" stroke-width="2" stroke-opacity="0.000000" stroke-linecap="round" stroke-linejoin="round" d="M 968.568 723.600 C 969.786 731.387 976.911 736.110 984.473 735.351 C 994.457 734.350 1002.536 725.359 1000.926 715.076 C 999.707 707.289 992.583 702.566 985.021 703.325 C 975.037 704.326 966.958 713.317 968.568 723.600 Z" clip-path="url(#8ce2f8bb-b65b-48e1-b0e5-7a50a81a4487)"/>
<path fill="#000000" fill-rule="evenodd" stroke="#000000" stroke-width="6" stroke-opacity="0.000000" stroke-linecap="round" stroke-linejoin="round" d="M 974.484 724.346 C 975.217 729.042 979.504 731.885 984.046 731.431 C 990.043 730.831 994.907 725.422 993.938 719.222 C 993.205 714.526 988.918 711.683 984.376 712.137 C 978.379 712.737 973.516 718.146 974.484 724.346 Z" clip-path="url(#8ce2f8bb-b65b-48e1-b0e5-7a50a81a4487)"/>
<path fill="#f8f8f8" fill-rule="evenodd" stroke="#000000" stroke-width="6" stroke-opacity="0.000000" stroke-linecap="round" stroke-linejoin="round" d="M 978.728 718.811 C 979.041 721.114 980.871 722.342 982.623 722.202 C 984.935 722.018 987.081 719.758 986.669 716.719 C 986.357 714.416 984.527 713.188 982.775 713.327 C 980.463 713.511 978.317 715.771 978.728 718.811 Z" clip-path="url(#8ce2f8bb-b65b-48e1-b0e5-7a50a81a4487)"/>
</g>
</g>
</svg>